<svg id="Layer_1" data-name="Layer 1" xmlns="http://www.w3.org/2000/svg" viewBox="0 0 535.48 589.61">
  <defs>
    <style>
      .cls-1 {
        fill: #dc0a80;
        opacity: 0.05;
      }
    </style>
  </defs>
  <path class="cls-1" d="M1261.71,261.34A28.29,28.29,0,1,0,1290,289.63,28.31,28.31,0,0,0,1261.71,261.34Zm0,39.44a11.16,11.16,0,1,1,11.16-11.15A11.17,11.17,0,0,1,1261.71,300.78Zm0-39.44A28.29,28.29,0,1,0,1290,289.63,28.31,28.31,0,0,0,1261.71,261.34Zm0,39.44a11.16,11.16,0,1,1,11.16-11.15A11.17,11.17,0,0,1,1261.71,300.78Zm0-39.44A28.29,28.29,0,1,0,1290,289.63,28.31,28.31,0,0,0,1261.71,261.34Zm0,39.44a11.16,11.16,0,1,1,11.16-11.15A11.17,11.17,0,0,1,1261.71,300.78Zm0-70.54a59.39,59.39,0,1,0,59.39,59.39A59.46,59.46,0,0,0,1261.71,230.24Zm0,101.64A42.26,42.26,0,1,1,1304,289.63,42.3,42.3,0,0,1,1261.71,331.88Zm0-70.54A28.29,28.29,0,1,0,1290,289.63,28.31,28.31,0,0,0,1261.71,261.34Zm0,39.44a11.16,11.16,0,1,1,11.16-11.15A11.17,11.17,0,0,1,1261.71,300.78Zm0-39.44A28.29,28.29,0,1,0,1290,289.63,28.31,28.31,0,0,0,1261.71,261.34Zm0,39.44a11.16,11.16,0,1,1,11.16-11.15A11.17,11.17,0,0,1,1261.71,300.78Zm0-39.44A28.29,28.29,0,1,0,1290,289.63,28.31,28.31,0,0,0,1261.71,261.34Zm0,39.44a11.16,11.16,0,1,1,11.16-11.15A11.17,11.17,0,0,1,1261.71,300.78Zm0-39.44A28.29,28.29,0,1,0,1290,289.63,28.31,28.31,0,0,0,1261.71,261.34Zm0,39.44a11.16,11.16,0,1,1,11.16-11.15A11.17,11.17,0,0,1,1261.71,300.78Zm0-39.44A28.29,28.29,0,1,0,1290,289.63,28.31,28.31,0,0,0,1261.71,261.34Zm0,39.44a11.16,11.16,0,1,1,11.16-11.15A11.17,11.17,0,0,1,1261.71,300.78Zm0-70.54a59.39,59.39,0,1,0,59.39,59.39A59.46,59.46,0,0,0,1261.71,230.24Zm0,101.64A42.26,42.26,0,1,1,1304,289.63,42.3,42.3,0,0,1,1261.71,331.88Zm0-70.54A28.29,28.29,0,1,0,1290,289.63,28.31,28.31,0,0,0,1261.71,261.34Zm0,39.44a11.16,11.16,0,1,1,11.16-11.15A11.17,11.17,0,0,1,1261.71,300.78Zm-107.13-39.94c30-21.94,66.05-33.07,107.13-33.07,39.33,0,74.06,10.21,103.29,30.35l1,.68v-42c-.33-.3-.66-.6-1-.87a166.78,166.78,0,0,0-32.28-22.25,154.09,154.09,0,0,0-142,0,176.09,176.09,0,0,0-48.15,37.79A221.17,221.17,0,0,0,1115.19,269c-1.84,3.19-3.6,6.43-5.17,9.53q-.75,1.47-1.44,2.88c-1.25,2.6-2,4.15-2.39,5.28a.65.65,0,0,1,0,.13,7.44,7.44,0,0,0-.47,2.82v0a5.7,5.7,0,0,0,0,.72c0,.07,0,.13,0,.2,0,.22.06.43.1.64,0,0,0,.08,0,.1a6,6,0,0,0,.17.73,1.09,1.09,0,0,1,0,.17l.21.57a.36.36,0,0,0,0,.11c.13.33,1.19,2.87,3.24,7,1.63,3.25,3.88,7.49,6.79,12.4a220.3,220.3,0,0,0,21.86,30.56c1.39,1.63,2.84,3.27,4.33,4.91a175.75,175.75,0,0,0,48.15,37.8,152.82,152.82,0,0,0,142,0A167.12,167.12,0,0,0,1365,363.29l1-.88v-42l-1,.69c-29.23,20.16-64,30.36-103.29,30.36-41.06,0-77.1-11.12-107.11-33.07a147.36,147.36,0,0,1-29.88-28.79A147.39,147.39,0,0,1,1154.58,260.84Zm107.13-67.32c37.4,0,70.68,14.07,99,41.82a185,185,0,0,0-29.25-13.23,218.27,218.27,0,0,0-139.59,0,184.83,184.83,0,0,0-29.27,13.23C1191,207.59,1224.31,193.52,1261.71,193.52Zm-69.89,163.6a218.27,218.27,0,0,0,139.77,0,186,186,0,0,0,29.21-13.22c-28.38,27.77-61.67,41.83-99.09,41.83s-70.67-14.06-99.06-41.81A186.78,186.78,0,0,0,1191.82,357.12Zm69.89-95.78A28.29,28.29,0,1,0,1290,289.63,28.31,28.31,0,0,0,1261.71,261.34Zm0,39.44a11.16,11.16,0,1,1,11.16-11.15A11.17,11.17,0,0,1,1261.71,300.78Zm0-39.44A28.29,28.29,0,1,0,1290,289.63,28.31,28.31,0,0,0,1261.71,261.34Zm0,39.44a11.16,11.16,0,1,1,11.16-11.15A11.17,11.17,0,0,1,1261.71,300.78Zm0-70.54a59.39,59.39,0,1,0,59.39,59.39A59.46,59.46,0,0,0,1261.71,230.24Zm0,101.64A42.26,42.26,0,1,1,1304,289.63,42.3,42.3,0,0,1,1261.71,331.88Zm0-70.54A28.29,28.29,0,1,0,1290,289.63,28.31,28.31,0,0,0,1261.71,261.34Zm0,39.44a11.16,11.16,0,1,1,11.16-11.15A11.17,11.17,0,0,1,1261.71,300.78Zm0-39.44A28.29,28.29,0,1,0,1290,289.63,28.31,28.31,0,0,0,1261.71,261.34Zm0,39.44a11.16,11.16,0,1,1,11.16-11.15A11.17,11.17,0,0,1,1261.71,300.78Zm0-39.44A28.29,28.29,0,1,0,1290,289.63,28.31,28.31,0,0,0,1261.71,261.34Zm0,39.44a11.16,11.16,0,1,1,11.16-11.15A11.17,11.17,0,0,1,1261.71,300.78Zm0-39.44A28.29,28.29,0,1,0,1290,289.63,28.31,28.31,0,0,0,1261.71,261.34Zm0,39.44a11.16,11.16,0,1,1,11.16-11.15A11.17,11.17,0,0,1,1261.71,300.78Zm0-39.44A28.29,28.29,0,1,0,1290,289.63,28.31,28.31,0,0,0,1261.71,261.34Zm0,39.44a11.16,11.16,0,1,1,11.16-11.15A11.17,11.17,0,0,1,1261.71,300.78Zm0-39.44A28.29,28.29,0,1,0,1290,289.63,28.31,28.31,0,0,0,1261.71,261.34Zm0,39.44a11.16,11.16,0,1,1,11.16-11.15A11.17,11.17,0,0,1,1261.71,300.78Zm0-70.54a59.39,59.39,0,1,0,59.39,59.39A59.46,59.46,0,0,0,1261.71,230.24Zm0,101.64A42.26,42.26,0,1,1,1304,289.63,42.3,42.3,0,0,1,1261.71,331.88Zm0-70.54A28.29,28.29,0,1,0,1290,289.63,28.31,28.31,0,0,0,1261.71,261.34Zm0,39.44a11.16,11.16,0,1,1,11.16-11.15A11.17,11.17,0,0,1,1261.71,300.78Zm0-39.44A28.29,28.29,0,1,0,1290,289.63,28.31,28.31,0,0,0,1261.71,261.34Zm0,39.44a11.16,11.16,0,1,1,11.16-11.15A11.17,11.17,0,0,1,1261.71,300.78Zm0-39.44A28.29,28.29,0,1,0,1290,289.63,28.31,28.31,0,0,0,1261.71,261.34Zm0,39.44a11.16,11.16,0,1,1,11.16-11.15A11.17,11.17,0,0,1,1261.71,300.78Z" transform="translate(-830.52 -176.39)"/>
  <path class="cls-1" d="M946.35,422.58a44.09,44.09,0,1,0,44.09,44.09,44.15,44.15,0,0,0-44.09-44.09m0,75.48a31.39,31.39,0,1,1,31.37-31.39,31.42,31.42,0,0,1-31.37,31.39m115.49-33.49,0-.08a39.58,39.58,0,0,0-1.77-3.93c-1.4-2.92-3.11-6.1-4.91-9.21a163.19,163.19,0,0,0-20.3-27.81,130.72,130.72,0,0,0-35.75-28.06,114.41,114.41,0,0,0-105.44,0,130.57,130.57,0,0,0-35.75,28.06,163.59,163.59,0,0,0-20.29,27.81c-1.8,3.11-3.51,6.29-4.92,9.21-.94,1.93-1.46,3.08-1.78,3.93a.26.26,0,0,1,0,.08,5.68,5.68,0,0,0-.34,2.1h0a4.61,4.61,0,0,0,0,.54.25.25,0,0,0,0,.15,2.42,2.42,0,0,0,0,.47s0,.06,0,.08a3.29,3.29,0,0,0,.14.54.59.59,0,0,0,0,.13c.06.13.11.29.16.43l0,.08a155,155,0,0,0,26.89,40.7,130.57,130.57,0,0,0,35.75,28.06,114.41,114.41,0,0,0,105.44,0,130.72,130.72,0,0,0,35.75-28.06,155.18,155.18,0,0,0,26.9-40.7.31.31,0,0,0,0-.08,3.66,3.66,0,0,0,.15-.43.69.69,0,0,0,0-.13,4.72,4.72,0,0,0,.13-.54.22.22,0,0,1,0-.08,3.54,3.54,0,0,0,.07-.47c0-.05,0-.09,0-.15a4.52,4.52,0,0,0,0-.53v0a5.7,5.7,0,0,0-.35-2.1M946.35,395.31c27.77,0,52.48,10.46,73.54,31.06a138.6,138.6,0,0,0-21.72-9.83,162,162,0,0,0-103.63,0,139.12,139.12,0,0,0-21.73,9.83c21.07-20.6,45.78-31.06,73.54-31.06m0,142.71c-27.76,0-52.47-10.44-73.54-31a138.24,138.24,0,0,0,21.66,9.8,162,162,0,0,0,103.76,0,136.51,136.51,0,0,0,21.69-9.82C998.85,527.58,974.13,538,946.35,538m79.53-50c-22.29,16.29-49,24.54-79.53,24.54s-57.23-8.25-79.52-24.54a108.6,108.6,0,0,1-22.17-21.38,108.77,108.77,0,0,1,22.16-21.37c22.29-16.29,49-24.55,79.53-24.55s57.25,8.26,79.54,24.55a110,110,0,0,1,22.17,21.37,109.56,109.56,0,0,1-22.18,21.38m-79.53-42.37a21,21,0,1,0,21,21,21,21,0,0,0-21-21m0,29.27a8.28,8.28,0,1,1,8.28-8.28,8.28,8.28,0,0,1-8.28,8.28" transform="translate(-830.52 -176.39)"/>
  <path class="cls-1" d="M1062.28,323.25a21.75,21.75,0,1,0-3.63,30.54A21.77,21.77,0,0,0,1062.28,323.25Zm-11.78,20.18a8.57,8.57,0,1,1,1.44-12A8.55,8.55,0,0,1,1050.5,343.43Zm11.78-20.18a21.75,21.75,0,1,0-3.63,30.54A21.77,21.77,0,0,0,1062.28,323.25Zm-11.78,20.18a8.57,8.57,0,1,1,1.44-12A8.55,8.55,0,0,1,1050.5,343.43Zm11.78-20.18a21.75,21.75,0,1,0-3.63,30.54A21.77,21.77,0,0,0,1062.28,323.25Zm-11.78,20.18a8.57,8.57,0,1,1,1.44-12A8.55,8.55,0,0,1,1050.5,343.43Zm30.58-35a45.67,45.67,0,1,0-7.64,64.11A45.72,45.72,0,0,0,1081.08,308.47Zm-15.8,53.76a32.49,32.49,0,1,1,5.46-45.64A32.54,32.54,0,0,1,1065.28,362.23Zm-33.53-42.62a21.75,21.75,0,1,0,30.53,3.64A21.76,21.76,0,0,0,1031.75,319.61Zm18.75,23.82a8.57,8.57,0,1,1,1.44-12A8.55,8.55,0,0,1,1050.5,343.43Zm11.78-20.18a21.75,21.75,0,1,0-3.63,30.54A21.77,21.77,0,0,0,1062.28,323.25Zm-11.78,20.18a8.57,8.57,0,1,1,1.44-12A8.55,8.55,0,0,1,1050.5,343.43Zm11.78-20.18a21.75,21.75,0,1,0-3.63,30.54A21.77,21.77,0,0,0,1062.28,323.25Zm-11.78,20.18a8.57,8.57,0,1,1,1.44-12A8.55,8.55,0,0,1,1050.5,343.43Zm11.78-20.18a21.75,21.75,0,1,0-3.63,30.54A21.77,21.77,0,0,0,1062.28,323.25Zm-11.78,20.18a8.57,8.57,0,1,1,1.44-12A8.55,8.55,0,0,1,1050.5,343.43Zm11.78-20.18a21.75,21.75,0,1,0-3.63,30.54A21.77,21.77,0,0,0,1062.28,323.25Zm-11.78,20.18a8.57,8.57,0,1,1,1.44-12A8.55,8.55,0,0,1,1050.5,343.43Zm30.58-35a45.67,45.67,0,1,0-7.64,64.11A45.72,45.72,0,0,0,1081.08,308.47Zm-15.8,53.76a32.49,32.49,0,1,1,5.46-45.64A32.54,32.54,0,0,1,1065.28,362.23Zm-33.53-42.62a21.75,21.75,0,1,0,30.53,3.64A21.76,21.76,0,0,0,1031.75,319.61Zm18.75,23.82a8.57,8.57,0,1,1,1.44-12A8.55,8.55,0,0,1,1050.5,343.43Zm30.58-35a45.67,45.67,0,1,0-7.64,64.11A45.72,45.72,0,0,0,1081.08,308.47Zm-15.8,53.76a32.49,32.49,0,1,1,5.46-45.64A32.54,32.54,0,0,1,1065.28,362.23Zm-33.53-42.62a21.75,21.75,0,1,0,30.53,3.64A21.76,21.76,0,0,0,1031.75,319.61Zm18.75,23.82a8.57,8.57,0,1,1,1.44-12A8.55,8.55,0,0,1,1050.5,343.43Zm87.71-.62q-.49-4.46-1.31-8.82a116.05,116.05,0,0,0-23.31-51.14q-1.74-2.22-3.57-4.33a115.92,115.92,0,0,0-40.66-30.32,135.34,135.34,0,0,0-45.73-11.12,171.8,171.8,0,0,0-35.65,1.3c-3.68.52-7.36,1.18-10.65,1.89-2.15.48-3.44.79-4.3,1.08l-.11,0a6.23,6.23,0,0,0-1.94,1.08h0l-.41.38a.22.22,0,0,0-.12.1,3.68,3.68,0,0,0-.33.35l-.06.06a4.94,4.94,0,0,0-.35.45l-.09.11a3.89,3.89,0,0,1-.25.4.3.3,0,0,0,0,.08c-.48.81-11.3,20.29-15.9,48a134.7,134.7,0,0,0,.08,47.07,118.52,118.52,0,0,0,67.54,85.8,134.93,134.93,0,0,0,45.73,11.12,160.84,160.84,0,0,0,50.35-4.19.12.12,0,0,0,.08,0l.46-.14.11,0,.53-.24a.08.08,0,0,0,.07-.05,3.09,3.09,0,0,0,.43-.24.4.4,0,0,0,.13-.07,3.72,3.72,0,0,0,.45-.33l0,0a5.83,5.83,0,0,0,1.49-1.61s0-.06,0-.1a38.72,38.72,0,0,0,2-3.95c1.46-3,3-6.43,4.36-9.91a168.91,168.91,0,0,0,9.62-34.32A139,139,0,0,0,1138.21,342.81ZM987.13,382.4C969.34,359.83,962,333,965.29,302.68a143.33,143.33,0,0,0,5.9,23.9A167.6,167.6,0,0,0,1037.66,411a142.53,142.53,0,0,0,21.88,11.37C1029.25,418.44,1004.94,405,987.13,382.4Zm123.22,37.06a113.24,113.24,0,0,1-31.6-4.35c-27.55-7.71-51.39-24.18-70.92-49s-30-51.85-31-80.43A113.49,113.49,0,0,1,980,254a113.07,113.07,0,0,1,31.59,4.34c27.53,7.7,51.41,24.19,70.94,49s29.94,51.9,31,80.44A113.49,113.49,0,0,1,1110.35,419.46Zm14.74-48.72a142,142,0,0,0-5.9-24,167.86,167.86,0,0,0-66.39-84.33,142,142,0,0,0-21.92-11.38c30.26,3.93,54.58,17.35,72.39,39.95a107.32,107.32,0,0,1,6.29,8.85,103.33,103.33,0,0,1,6.79,12.4C1124.46,329.85,1127.39,349.41,1125.09,370.74ZM1017,300.82a45.66,45.66,0,1,0,64.13,7.65A45.75,45.75,0,0,0,1017,300.82Zm48.33,61.41a32.49,32.49,0,1,1,5.46-45.64A32.54,32.54,0,0,1,1065.28,362.23Zm-33.53-42.62a21.75,21.75,0,1,0,30.53,3.64A21.76,21.76,0,0,0,1031.75,319.61Zm18.75,23.82a8.57,8.57,0,1,1,1.44-12A8.55,8.55,0,0,1,1050.5,343.43Zm11.78-20.18a21.75,21.75,0,1,0-3.63,30.54A21.77,21.77,0,0,0,1062.28,323.25Zm-11.78,20.18a8.57,8.57,0,1,1,1.44-12A8.55,8.55,0,0,1,1050.5,343.43Zm11.78-20.18a21.75,21.75,0,1,0-3.63,30.54A21.77,21.77,0,0,0,1062.28,323.25Zm-11.78,20.18a8.57,8.57,0,1,1,1.44-12A8.55,8.55,0,0,1,1050.5,343.43Zm30.58-35a45.67,45.67,0,1,0-7.64,64.11A45.72,45.72,0,0,0,1081.08,308.47Zm-15.8,53.76a32.49,32.49,0,1,1,5.46-45.64A32.54,32.54,0,0,1,1065.28,362.23Zm-33.53-42.62a21.75,21.75,0,1,0,30.53,3.64A21.76,21.76,0,0,0,1031.75,319.61Zm18.75,23.82a8.57,8.57,0,1,1,1.44-12A8.55,8.55,0,0,1,1050.5,343.43Zm11.78-20.18a21.75,21.75,0,1,0-3.63,30.54A21.77,21.77,0,0,0,1062.28,323.25Zm-11.78,20.18a8.57,8.57,0,1,1,1.44-12A8.55,8.55,0,0,1,1050.5,343.43Zm11.78-20.18a21.75,21.75,0,1,0-3.63,30.54A21.77,21.77,0,0,0,1062.28,323.25Zm-11.78,20.18a8.57,8.57,0,1,1,1.44-12A8.55,8.55,0,0,1,1050.5,343.43Zm30.58-35a45.67,45.67,0,1,0-7.64,64.11A45.72,45.72,0,0,0,1081.08,308.47Zm-15.8,53.76a32.49,32.49,0,1,1,5.46-45.64A32.54,32.54,0,0,1,1065.28,362.23Zm-33.53-42.62a21.75,21.75,0,1,0,30.53,3.64A21.76,21.76,0,0,0,1031.75,319.61Zm18.75,23.82a8.57,8.57,0,1,1,1.44-12A8.55,8.55,0,0,1,1050.5,343.43Zm11.78-20.18a21.75,21.75,0,1,0-3.63,30.54A21.77,21.77,0,0,0,1062.28,323.25Zm-11.78,20.18a8.57,8.57,0,1,1,1.44-12A8.55,8.55,0,0,1,1050.5,343.43Zm11.78-20.18a21.75,21.75,0,1,0-3.63,30.54A21.77,21.77,0,0,0,1062.28,323.25Zm-11.78,20.18a8.57,8.57,0,1,1,1.44-12A8.55,8.55,0,0,1,1050.5,343.43Zm11.78-20.18a21.75,21.75,0,1,0-3.63,30.54A21.77,21.77,0,0,0,1062.28,323.25Zm-11.78,20.18a8.57,8.57,0,1,1,1.44-12A8.55,8.55,0,0,1,1050.5,343.43Zm11.78-20.18a21.75,21.75,0,1,0-3.63,30.54A21.77,21.77,0,0,0,1062.28,323.25Zm-11.78,20.18a8.57,8.57,0,1,1,1.44-12A8.55,8.55,0,0,1,1050.5,343.43Zm11.78-20.18a21.75,21.75,0,1,0-3.63,30.54A21.77,21.77,0,0,0,1062.28,323.25Zm-11.78,20.18a8.57,8.57,0,1,1,1.44-12A8.55,8.55,0,0,1,1050.5,343.43Zm30.58-35a45.67,45.67,0,1,0-7.64,64.11A45.72,45.72,0,0,0,1081.08,308.47Zm-15.8,53.76a32.49,32.49,0,1,1,5.46-45.64A32.54,32.54,0,0,1,1065.28,362.23Zm-33.53-42.62a21.75,21.75,0,1,0,30.53,3.64A21.76,21.76,0,0,0,1031.75,319.61Zm18.75,23.82a8.57,8.57,0,1,1,1.44-12A8.55,8.55,0,0,1,1050.5,343.43Zm11.78-20.18a21.75,21.75,0,1,0-3.63,30.54A21.77,21.77,0,0,0,1062.28,323.25Zm-11.78,20.18a8.57,8.57,0,1,1,1.44-12A8.55,8.55,0,0,1,1050.5,343.43Zm11.78-20.18a21.75,21.75,0,1,0-3.63,30.54A21.77,21.77,0,0,0,1062.28,323.25Zm-11.78,20.18a8.57,8.57,0,1,1,1.44-12A8.55,8.55,0,0,1,1050.5,343.43Z" transform="translate(-830.52 -176.39)"/>
  <path class="cls-1" d="M1019,642.23a30.5,30.5,0,1,0-15.29,40.36A30.56,30.56,0,0,0,1019,642.23Zm-22.88,23.5a12,12,0,1,1,6-15.91A12,12,0,0,1,996.14,665.73Zm22.88-23.5a30.5,30.5,0,1,0-15.29,40.36A30.56,30.56,0,0,0,1019,642.23Zm-22.88,23.5a12,12,0,1,1,6-15.91A12,12,0,0,1,996.14,665.73Zm22.88-23.5a30.5,30.5,0,1,0-15.29,40.36A30.56,30.56,0,0,0,1019,642.23Zm-22.88,23.5a12,12,0,1,1,6-15.91A12,12,0,0,1,996.14,665.73Zm22.88-23.5a30.5,30.5,0,1,0-15.29,40.36A30.56,30.56,0,0,0,1019,642.23Zm-22.88,23.5a12,12,0,1,1,6-15.91A12,12,0,0,1,996.14,665.73Zm22.88-23.5a30.5,30.5,0,1,0-15.29,40.36A30.56,30.56,0,0,0,1019,642.23Zm-22.88,23.5a12,12,0,1,1,6-15.91A12,12,0,0,1,996.14,665.73Zm53.48-37.27a64.06,64.06,0,1,0-32.12,84.73A64.13,64.13,0,0,0,1049.62,628.46Zm-39.7,67.87a45.59,45.59,0,1,1,22.86-60.27A45.66,45.66,0,0,1,1009.92,696.33Zm-31.24-69.4a30.52,30.52,0,1,0,40.34,15.3A30.55,30.55,0,0,0,978.68,626.93Zm17.46,38.8a12,12,0,1,1,6-15.91A12,12,0,0,1,996.14,665.73Zm22.88-23.5a30.5,30.5,0,1,0-15.29,40.36A30.56,30.56,0,0,0,1019,642.23Zm-22.88,23.5a12,12,0,1,1,6-15.91A12,12,0,0,1,996.14,665.73Zm22.88-23.5a30.5,30.5,0,1,0-15.29,40.36A30.56,30.56,0,0,0,1019,642.23Zm-22.88,23.5a12,12,0,1,1,6-15.91A12,12,0,0,1,996.14,665.73Zm22.88-23.5a30.5,30.5,0,1,0-15.29,40.36A30.56,30.56,0,0,0,1019,642.23Zm-22.88,23.5a12,12,0,1,1,6-15.91A12,12,0,0,1,996.14,665.73Zm22.88-23.5a30.5,30.5,0,1,0-15.29,40.36A30.56,30.56,0,0,0,1019,642.23Zm-22.88,23.5a12,12,0,1,1,6-15.91A12,12,0,0,1,996.14,665.73Zm22.88-23.5a30.5,30.5,0,1,0-15.29,40.36A30.56,30.56,0,0,0,1019,642.23Zm-22.88,23.5a12,12,0,1,1,6-15.91A12,12,0,0,1,996.14,665.73Zm22.88-23.5a30.5,30.5,0,1,0-15.29,40.36A30.56,30.56,0,0,0,1019,642.23Zm-22.88,23.5a12,12,0,1,1,6-15.91A12,12,0,0,1,996.14,665.73Zm22.88-23.5a30.5,30.5,0,1,0-15.29,40.36A30.56,30.56,0,0,0,1019,642.23Zm-22.88,23.5a12,12,0,1,1,6-15.91A12,12,0,0,1,996.14,665.73Zm22.88-23.5a30.5,30.5,0,1,0-15.29,40.36A30.56,30.56,0,0,0,1019,642.23Zm-22.88,23.5a12,12,0,1,1,6-15.91A12,12,0,0,1,996.14,665.73Zm53.48-37.27a64.06,64.06,0,1,0-32.12,84.73A64.13,64.13,0,0,0,1049.62,628.46Zm-39.7,67.87a45.59,45.59,0,1,1,22.86-60.27A45.66,45.66,0,0,1,1009.92,696.33Zm-31.24-69.4a30.52,30.52,0,1,0,40.34,15.3A30.55,30.55,0,0,0,978.68,626.93Zm17.46,38.8a12,12,0,1,1,6-15.91A12,12,0,0,1,996.14,665.73Zm22.88-23.5a30.5,30.5,0,1,0-15.29,40.36A30.56,30.56,0,0,0,1019,642.23Zm-22.88,23.5a12,12,0,1,1,6-15.91A12,12,0,0,1,996.14,665.73Zm22.88-23.5a30.5,30.5,0,1,0-15.29,40.36A30.56,30.56,0,0,0,1019,642.23Zm-22.88,23.5a12,12,0,1,1,6-15.91A12,12,0,0,1,996.14,665.73Zm22.88-23.5a30.5,30.5,0,1,0-15.29,40.36A30.56,30.56,0,0,0,1019,642.23Zm-22.88,23.5a12,12,0,1,1,6-15.91A12,12,0,0,1,996.14,665.73Zm22.88-23.5a30.5,30.5,0,1,0-15.29,40.36A30.56,30.56,0,0,0,1019,642.23Zm-22.88,23.5a12,12,0,1,1,6-15.91A12,12,0,0,1,996.14,665.73Zm53.48-37.27a64.06,64.06,0,1,0-32.12,84.73A64.13,64.13,0,0,0,1049.62,628.46Zm-39.7,67.87a45.59,45.59,0,1,1,22.86-60.27A45.66,45.66,0,0,1,1009.92,696.33Zm-31.24-69.4a30.52,30.52,0,1,0,40.34,15.3A30.55,30.55,0,0,0,978.68,626.93Zm17.46,38.8a12,12,0,1,1,6-15.91A12,12,0,0,1,996.14,665.73Zm22.88-23.5a30.5,30.5,0,1,0-15.29,40.36A30.56,30.56,0,0,0,1019,642.23Zm-22.88,23.5a12,12,0,1,1,6-15.91A12,12,0,0,1,996.14,665.73Zm22.88-23.5a30.5,30.5,0,1,0-15.29,40.36A30.56,30.56,0,0,0,1019,642.23Zm-22.88,23.5a12,12,0,1,1,6-15.91A12,12,0,0,1,996.14,665.73Zm22.88-23.5a30.5,30.5,0,1,0-15.29,40.36A30.56,30.56,0,0,0,1019,642.23Zm-22.88,23.5a12,12,0,1,1,6-15.91A12,12,0,0,1,996.14,665.73Zm22.88-23.5a30.5,30.5,0,1,0-15.29,40.36A30.56,30.56,0,0,0,1019,642.23Zm-22.88,23.5a12,12,0,1,1,6-15.91A12,12,0,0,1,996.14,665.73Zm53.48-37.27a64.06,64.06,0,1,0-32.12,84.73A64.13,64.13,0,0,0,1049.62,628.46Zm-39.7,67.87a45.59,45.59,0,1,1,22.86-60.27A45.66,45.66,0,0,1,1009.92,696.33Zm-31.24-69.4a30.52,30.52,0,1,0,40.34,15.3A30.55,30.55,0,0,0,978.68,626.93Zm17.46,38.8a12,12,0,1,1,6-15.91A12,12,0,0,1,996.14,665.73Zm53.48-37.27a64.06,64.06,0,1,0-32.12,84.73A64.13,64.13,0,0,0,1049.62,628.46Zm-39.7,67.87a45.59,45.59,0,1,1,22.86-60.27A45.66,45.66,0,0,1,1009.92,696.33Zm-31.24-69.4a30.52,30.52,0,1,0,40.34,15.3A30.55,30.55,0,0,0,978.68,626.93Zm17.46,38.8a12,12,0,1,1,6-15.91A12,12,0,0,1,996.14,665.73Zm149.37-76.56v-.11c0-.22,0-.43-.07-.65,0-.07,0-.15,0-.21,0-.27-.08-.53-.15-.79a.7.7,0,0,0,0-.12,6.16,6.16,0,0,0-.18-.65,1.87,1.87,0,0,1-.07-.22c-.08-.24-.19-.48-.29-.71v0a8.66,8.66,0,0,0-1.72-2.58s-.06-.05-.1-.08c-.91-.93-2.29-2.13-4.68-4.14-3.62-3-7.77-6.23-12-9.28q-1.68-1.22-3.62-2.55a236.69,236.69,0,0,0-39.86-22.19c-21.34-9.26-42.89-14.6-64.11-15.86a166.27,166.27,0,0,0-139.71,62.88c-13.11,16.72-23.4,36.4-30.63,58.5a238.6,238.6,0,0,0-10.31,49c-.53,5.19-.89,10.43-1,15.13-.08,3.11-.11,5,0,6.27a.62.62,0,0,1,0,.13,8.38,8.38,0,0,0,.79,3v0c.12.24.22.46.35.7a1.2,1.2,0,0,0,.11.17c.12.19.23.4.37.58a.6.6,0,0,1,.06.11,8,8,0,0,0,.51.62,1.11,1.11,0,0,0,.12.16l.46.47s0,.07.07.09c1,.91,23.82,22.24,59.91,37.89l.79.34c.8.34,1.59.68,2.39,1h138.75c.73-.32,1.46-.67,2.18-1a162.84,162.84,0,0,0,59.71-47.36c13.12-16.72,23.42-36.39,30.64-58.49a234.49,234.49,0,0,0,9.17-39.55A191.06,191.06,0,0,0,1145.51,589.17ZM948.64,560.22c36.8-16.57,75.77-17.45,116-2.71a199.33,199.33,0,0,0-34.64-.08,226.57,226.57,0,0,0-73.74,19.62c-24.32,11-45.72,25.15-63.58,42.18a199.64,199.64,0,0,0-22.93,26C885.37,605.35,911.86,576.77,948.64,560.22Zm85.12,189.08C997,765.86,958,766.76,917.79,752a199.17,199.17,0,0,0,34.54.08c24.66-2.07,49.5-8.67,73.85-19.64s45.77-25.18,63.66-42.25a199.66,199.66,0,0,0,22.87-25.94C1097.08,704.17,1070.57,732.74,1033.76,749.3Zm75.57-113.63c-19.83,34.85-50.34,61.75-90.74,79.94s-80.76,23.18-120,14.91a159.2,159.2,0,0,1-42.15-15.11,158.55,158.55,0,0,1,16.62-41.53c19.83-34.89,50.35-61.78,90.75-80s80.79-23.18,120-14.9A159.89,159.89,0,0,1,1126,594.1,159.51,159.51,0,0,1,1109.33,635.67ZM964.91,596.34a64.07,64.07,0,1,0,84.71,32.12A64.13,64.13,0,0,0,964.91,596.34Zm45,100a45.59,45.59,0,1,1,22.86-60.27A45.66,45.66,0,0,1,1009.92,696.33Zm-31.24-69.4a30.52,30.52,0,1,0,40.34,15.3A30.55,30.55,0,0,0,978.68,626.93Zm17.46,38.8a12,12,0,1,1,6-15.91A12,12,0,0,1,996.14,665.73Zm22.88-23.5a30.5,30.5,0,1,0-15.29,40.36A30.56,30.56,0,0,0,1019,642.23Zm-22.88,23.5a12,12,0,1,1,6-15.91A12,12,0,0,1,996.14,665.73Zm22.88-23.5a30.5,30.5,0,1,0-15.29,40.36A30.56,30.56,0,0,0,1019,642.23Zm-22.88,23.5a12,12,0,1,1,6-15.91A12,12,0,0,1,996.14,665.73Zm53.48-37.27a64.06,64.06,0,1,0-32.12,84.73A64.13,64.13,0,0,0,1049.62,628.46Zm-39.7,67.87a45.59,45.59,0,1,1,22.86-60.27A45.66,45.66,0,0,1,1009.92,696.33Zm-31.24-69.4a30.52,30.52,0,1,0,40.34,15.3A30.55,30.55,0,0,0,978.68,626.93Zm17.46,38.8a12,12,0,1,1,6-15.91A12,12,0,0,1,996.14,665.73Zm22.88-23.5a30.5,30.5,0,1,0-15.29,40.36A30.56,30.56,0,0,0,1019,642.23Zm-22.88,23.5a12,12,0,1,1,6-15.91A12,12,0,0,1,996.14,665.73Zm22.88-23.5a30.5,30.5,0,1,0-15.29,40.36A30.56,30.56,0,0,0,1019,642.23Zm-22.88,23.5a12,12,0,1,1,6-15.91A12,12,0,0,1,996.14,665.73Zm53.48-37.27a64.06,64.06,0,1,0-32.12,84.73A64.13,64.13,0,0,0,1049.62,628.46Zm-39.7,67.87a45.59,45.59,0,1,1,22.86-60.27A45.66,45.66,0,0,1,1009.92,696.33Zm-31.24-69.4a30.52,30.52,0,1,0,40.34,15.3A30.55,30.55,0,0,0,978.68,626.93Zm17.46,38.8a12,12,0,1,1,6-15.91A12,12,0,0,1,996.14,665.73Zm22.88-23.5a30.5,30.5,0,1,0-15.29,40.36A30.56,30.56,0,0,0,1019,642.23Zm-22.88,23.5a12,12,0,1,1,6-15.91A12,12,0,0,1,996.14,665.73Zm22.88-23.5a30.5,30.5,0,1,0-15.29,40.36A30.56,30.56,0,0,0,1019,642.23Zm-22.88,23.5a12,12,0,1,1,6-15.91A12,12,0,0,1,996.14,665.73Zm22.88-23.5a30.5,30.5,0,1,0-15.29,40.36A30.56,30.56,0,0,0,1019,642.23Zm-22.88,23.5a12,12,0,1,1,6-15.91A12,12,0,0,1,996.14,665.73Zm22.88-23.5a30.5,30.5,0,1,0-15.29,40.36A30.56,30.56,0,0,0,1019,642.23Zm-22.88,23.5a12,12,0,1,1,6-15.91A12,12,0,0,1,996.14,665.73Zm22.88-23.5a30.5,30.5,0,1,0-15.29,40.36A30.56,30.56,0,0,0,1019,642.23Zm-22.88,23.5a12,12,0,1,1,6-15.91A12,12,0,0,1,996.14,665.73Zm22.88-23.5a30.5,30.5,0,1,0-15.29,40.36A30.56,30.56,0,0,0,1019,642.23Zm-22.88,23.5a12,12,0,1,1,6-15.91A12,12,0,0,1,996.14,665.73Zm53.48-37.27a64.06,64.06,0,1,0-32.12,84.73A64.13,64.13,0,0,0,1049.62,628.46Zm-39.7,67.87a45.59,45.59,0,1,1,22.86-60.27A45.66,45.66,0,0,1,1009.92,696.33Zm-31.24-69.4a30.52,30.52,0,1,0,40.34,15.3A30.55,30.55,0,0,0,978.68,626.93Zm17.46,38.8a12,12,0,1,1,6-15.91A12,12,0,0,1,996.14,665.73Zm22.88-23.5a30.5,30.5,0,1,0-15.29,40.36A30.56,30.56,0,0,0,1019,642.23Zm-22.88,23.5a12,12,0,1,1,6-15.91A12,12,0,0,1,996.14,665.73Zm22.88-23.5a30.5,30.5,0,1,0-15.29,40.36A30.56,30.56,0,0,0,1019,642.23Zm-22.88,23.5a12,12,0,1,1,6-15.91A12,12,0,0,1,996.14,665.73Zm22.88-23.5a30.5,30.5,0,1,0-15.29,40.36A30.56,30.56,0,0,0,1019,642.23Zm-22.88,23.5a12,12,0,1,1,6-15.91A12,12,0,0,1,996.14,665.73Zm22.88-23.5a30.5,30.5,0,1,0-15.29,40.36A30.56,30.56,0,0,0,1019,642.23Zm-22.88,23.5a12,12,0,1,1,6-15.91A12,12,0,0,1,996.14,665.73Zm22.88-23.5a30.5,30.5,0,1,0-15.29,40.36A30.56,30.56,0,0,0,1019,642.23Zm-22.88,23.5a12,12,0,1,1,6-15.91A12,12,0,0,1,996.14,665.73Zm22.88-23.5a30.5,30.5,0,1,0-15.29,40.36A30.56,30.56,0,0,0,1019,642.23Zm-22.88,23.5a12,12,0,1,1,6-15.91A12,12,0,0,1,996.14,665.73Zm53.48-37.27a64.06,64.06,0,1,0-32.12,84.73A64.13,64.13,0,0,0,1049.62,628.46Zm-39.7,67.87a45.59,45.59,0,1,1,22.86-60.27A45.66,45.66,0,0,1,1009.92,696.33Zm-31.24-69.4a30.52,30.52,0,1,0,40.34,15.3A30.55,30.55,0,0,0,978.68,626.93Zm17.46,38.8a12,12,0,1,1,6-15.91A12,12,0,0,1,996.14,665.73Zm22.88-23.5a30.5,30.5,0,1,0-15.29,40.36A30.56,30.56,0,0,0,1019,642.23Zm-22.88,23.5a12,12,0,1,1,6-15.91A12,12,0,0,1,996.14,665.73Zm22.88-23.5a30.5,30.5,0,1,0-15.29,40.36A30.56,30.56,0,0,0,1019,642.23Zm-22.88,23.5a12,12,0,1,1,6-15.91A12,12,0,0,1,996.14,665.73Zm22.88-23.5a30.5,30.5,0,1,0-15.29,40.36A30.56,30.56,0,0,0,1019,642.23Zm-22.88,23.5a12,12,0,1,1,6-15.91A12,12,0,0,1,996.14,665.73Zm22.88-23.5a30.5,30.5,0,1,0-15.29,40.36A30.56,30.56,0,0,0,1019,642.23Zm-22.88,23.5a12,12,0,1,1,6-15.91A12,12,0,0,1,996.14,665.73Zm22.88-23.5a30.5,30.5,0,1,0-15.29,40.36A30.56,30.56,0,0,0,1019,642.23Zm-22.88,23.5a12,12,0,1,1,6-15.91A12,12,0,0,1,996.14,665.73Zm22.88-23.5a30.5,30.5,0,1,0-15.29,40.36A30.56,30.56,0,0,0,1019,642.23Zm-22.88,23.5a12,12,0,1,1,6-15.91A12,12,0,0,1,996.14,665.73Zm22.88-23.5a30.5,30.5,0,1,0-15.29,40.36A30.56,30.56,0,0,0,1019,642.23Zm-22.88,23.5a12,12,0,1,1,6-15.91A12,12,0,0,1,996.14,665.73Zm22.88-23.5a30.5,30.5,0,1,0-15.29,40.36A30.56,30.56,0,0,0,1019,642.23Zm-22.88,23.5a12,12,0,1,1,6-15.91A12,12,0,0,1,996.14,665.73Zm22.88-23.5a30.5,30.5,0,1,0-15.29,40.36A30.56,30.56,0,0,0,1019,642.23Zm-22.88,23.5a12,12,0,1,1,6-15.91A12,12,0,0,1,996.14,665.73Zm53.48-37.27a64.06,64.06,0,1,0-32.12,84.73A64.13,64.13,0,0,0,1049.62,628.46Zm-39.7,67.87a45.59,45.59,0,1,1,22.86-60.27A45.66,45.66,0,0,1,1009.92,696.33Zm-31.24-69.4a30.52,30.52,0,1,0,40.34,15.3A30.55,30.55,0,0,0,978.68,626.93Zm17.46,38.8a12,12,0,1,1,6-15.91A12,12,0,0,1,996.14,665.73Zm22.88-23.5a30.5,30.5,0,1,0-15.29,40.36A30.56,30.56,0,0,0,1019,642.23Zm-22.88,23.5a12,12,0,1,1,6-15.91A12,12,0,0,1,996.14,665.73Zm22.88-23.5a30.5,30.5,0,1,0-15.29,40.36A30.56,30.56,0,0,0,1019,642.23Zm-22.88,23.5a12,12,0,1,1,6-15.91A12,12,0,0,1,996.14,665.73Zm22.88-23.5a30.5,30.5,0,1,0-15.29,40.36A30.56,30.56,0,0,0,1019,642.23Zm-22.88,23.5a12,12,0,1,1,6-15.91A12,12,0,0,1,996.14,665.73Zm22.88-23.5a30.5,30.5,0,1,0-15.29,40.36A30.56,30.56,0,0,0,1019,642.23Zm-22.88,23.5a12,12,0,1,1,6-15.91A12,12,0,0,1,996.14,665.73Z" transform="translate(-830.52 -176.39)"/>
  <path class="cls-1" d="M1325,527.76a40.34,40.34,0,1,0,8.4,56.41A40.41,40.41,0,0,0,1325,527.76Zm-11.22,41.88a15.9,15.9,0,1,1-3.32-22.24A15.93,15.93,0,0,1,1313.79,569.64ZM1325,527.76a40.34,40.34,0,1,0,8.4,56.41A40.41,40.41,0,0,0,1325,527.76Zm-11.22,41.88a15.9,15.9,0,1,1-3.32-22.24A15.93,15.93,0,0,1,1313.79,569.64ZM1325,527.76a40.34,40.34,0,1,0,8.4,56.41A40.41,40.41,0,0,0,1325,527.76Zm-11.22,41.88a15.9,15.9,0,1,1-3.32-22.24A15.93,15.93,0,0,1,1313.79,569.64ZM1325,527.76a40.34,40.34,0,1,0,8.4,56.41A40.41,40.41,0,0,0,1325,527.76Zm-11.22,41.88a15.9,15.9,0,1,1-3.32-22.24A15.93,15.93,0,0,1,1313.79,569.64ZM1325,527.76a40.34,40.34,0,1,0,8.4,56.41A40.41,40.41,0,0,0,1325,527.76Zm-11.22,41.88a15.9,15.9,0,1,1-3.32-22.24A15.93,15.93,0,0,1,1313.79,569.64Zm51.21-64.9a83.66,83.66,0,0,0-13.62-12.61A84.67,84.67,0,1,0,1365,615.62c.34-.38.67-.77,1-1.16V505.91C1365.69,505.52,1365.35,505.13,1365,504.74ZM1349.43,596a60.25,60.25,0,1,1-12.57-84.27A60.3,60.3,0,0,1,1349.43,596ZM1325,527.76a40.34,40.34,0,1,0,8.4,56.41A40.41,40.41,0,0,0,1325,527.76Zm-11.22,41.88a15.9,15.9,0,1,1-3.32-22.24A15.93,15.93,0,0,1,1313.79,569.64ZM1325,527.76a40.34,40.34,0,1,0,8.4,56.41A40.41,40.41,0,0,0,1325,527.76Zm-11.22,41.88a15.9,15.9,0,1,1-3.32-22.24A15.93,15.93,0,0,1,1313.79,569.64ZM1325,527.76a40.34,40.34,0,1,0,8.4,56.41A40.41,40.41,0,0,0,1325,527.76Zm-11.22,41.88a15.9,15.9,0,1,1-3.32-22.24A15.93,15.93,0,0,1,1313.79,569.64ZM1325,527.76a40.34,40.34,0,1,0,8.4,56.41A40.41,40.41,0,0,0,1325,527.76Zm-11.22,41.88a15.9,15.9,0,1,1-3.32-22.24A15.93,15.93,0,0,1,1313.79,569.64ZM1325,527.76a40.34,40.34,0,1,0,8.4,56.41A40.41,40.41,0,0,0,1325,527.76Zm-11.22,41.88a15.9,15.9,0,1,1-3.32-22.24A15.93,15.93,0,0,1,1313.79,569.64ZM1325,527.76a40.34,40.34,0,1,0,8.4,56.41A40.41,40.41,0,0,0,1325,527.76Zm-11.22,41.88a15.9,15.9,0,1,1-3.32-22.24A15.93,15.93,0,0,1,1313.79,569.64ZM1365,438.39l1,.58V411.11l-1-.5A212.73,212.73,0,0,0,1316.19,393q-7.53-1.74-15.22-2.93c-27.76-4.33-57.11-3.49-87.25,2.45-1.68.33-3.35.68-5,1a318.05,318.05,0,0,0-58.11,18.72c-6.32,2.74-12.6,5.72-18.11,8.62-3.63,1.9-5.79,3.07-7.23,4l-.14.11a10.51,10.51,0,0,0-2.94,2.83l0,0a7.08,7.08,0,0,0-.58.85l-.14.24c-.15.27-.31.54-.43.81a.28.28,0,0,0-.06.15,5.83,5.83,0,0,0-.4,1,.89.89,0,0,0-.1.23c-.1.28-.17.57-.25.85a1.47,1.47,0,0,0-.06.14c-.41,1.69-10.27,41.83-5,93.57a272.06,272.06,0,0,0,7.42,41.37,235.69,235.69,0,0,0,15.71,42.79q2.4,5,5,9.77a219.83,219.83,0,0,0,157.74,110.71,241.65,241.65,0,0,0,63.94,1.13l1-.11V706.76l-1,.13c-54.64,6.77-103.53-5.49-145.51-36.57-42.86-31.72-69.07-76.07-78.06-132a267.66,267.66,0,0,0,22.23,39.87c18.32,27.08,42,51.46,70.35,72.46s58.6,36.51,89.84,46.11A263.11,263.11,0,0,0,1365,706l1,.14V681.48c-.33,0-.67-.09-1-.15-40.61-6.18-79.65-23-116.45-50.26-47.07-34.84-78.93-78.15-94.72-128.74A210,210,0,0,1,1144,444a211.19,211.19,0,0,1,58.64-7.66c53,.33,103.76,18.14,150.84,53q5.91,4.38,11.51,8.94l1,.82V468.2l-1-.72c-27.45-19.87-56.61-34.62-86.69-43.88a264.54,264.54,0,0,0-44.77-9.66C1282.13,407.25,1326.21,415.44,1365,438.39Zm-40,89.37a40.34,40.34,0,1,0,8.4,56.41A40.41,40.41,0,0,0,1325,527.76Zm-11.22,41.88a15.9,15.9,0,1,1-3.32-22.24A15.93,15.93,0,0,1,1313.79,569.64ZM1325,527.76a40.34,40.34,0,1,0,8.4,56.41A40.41,40.41,0,0,0,1325,527.76Zm-11.22,41.88a15.9,15.9,0,1,1-3.32-22.24A15.93,15.93,0,0,1,1313.79,569.64ZM1325,527.76a40.34,40.34,0,1,0,8.4,56.41A40.41,40.41,0,0,0,1325,527.76Zm-11.22,41.88a15.9,15.9,0,1,1-3.32-22.24A15.93,15.93,0,0,1,1313.79,569.64Zm51.21-64.9a83.66,83.66,0,0,0-13.62-12.61A84.67,84.67,0,1,0,1365,615.62c.34-.38.67-.77,1-1.16V505.91C1365.69,505.52,1365.35,505.13,1365,504.74ZM1349.43,596a60.25,60.25,0,1,1-12.57-84.27A60.3,60.3,0,0,1,1349.43,596ZM1325,527.76a40.34,40.34,0,1,0,8.4,56.41A40.41,40.41,0,0,0,1325,527.76Zm-11.22,41.88a15.9,15.9,0,1,1-3.32-22.24A15.93,15.93,0,0,1,1313.79,569.64ZM1325,527.76a40.34,40.34,0,1,0,8.4,56.41A40.41,40.41,0,0,0,1325,527.76Zm-11.22,41.88a15.9,15.9,0,1,1-3.32-22.24A15.93,15.93,0,0,1,1313.79,569.64ZM1325,527.76a40.34,40.34,0,1,0,8.4,56.41A40.41,40.41,0,0,0,1325,527.76Zm-11.22,41.88a15.9,15.9,0,1,1-3.32-22.24A15.93,15.93,0,0,1,1313.79,569.64ZM1325,527.76a40.34,40.34,0,1,0,8.4,56.41A40.41,40.41,0,0,0,1325,527.76Zm-11.22,41.88a15.9,15.9,0,1,1-3.32-22.24A15.93,15.93,0,0,1,1313.79,569.64ZM1325,527.76a40.34,40.34,0,1,0,8.4,56.41A40.41,40.41,0,0,0,1325,527.76Zm-11.22,41.88a15.9,15.9,0,1,1-3.32-22.24A15.93,15.93,0,0,1,1313.79,569.64ZM1325,527.76a40.34,40.34,0,1,0,8.4,56.41A40.41,40.41,0,0,0,1325,527.76Zm-11.22,41.88a15.9,15.9,0,1,1-3.32-22.24A15.93,15.93,0,0,1,1313.79,569.64ZM1325,527.76a40.34,40.34,0,1,0,8.4,56.41A40.41,40.41,0,0,0,1325,527.76Zm-11.22,41.88a15.9,15.9,0,1,1-3.32-22.24A15.93,15.93,0,0,1,1313.79,569.64Zm51.21-64.9a83.66,83.66,0,0,0-13.62-12.61A84.67,84.67,0,1,0,1365,615.62c.34-.38.67-.77,1-1.16V505.91C1365.69,505.52,1365.35,505.13,1365,504.74ZM1349.43,596a60.25,60.25,0,1,1-12.57-84.27A60.3,60.3,0,0,1,1349.43,596ZM1325,527.76a40.34,40.34,0,1,0,8.4,56.41A40.41,40.41,0,0,0,1325,527.76Zm-11.22,41.88a15.9,15.9,0,1,1-3.32-22.24A15.93,15.93,0,0,1,1313.79,569.64ZM1325,527.76a40.34,40.34,0,1,0,8.4,56.41A40.41,40.41,0,0,0,1325,527.76Zm-11.22,41.88a15.9,15.9,0,1,1-3.32-22.24A15.93,15.93,0,0,1,1313.79,569.64ZM1325,527.76a40.34,40.34,0,1,0,8.4,56.41A40.41,40.41,0,0,0,1325,527.76Zm-11.22,41.88a15.9,15.9,0,1,1-3.32-22.24A15.93,15.93,0,0,1,1313.79,569.64ZM1325,527.76a40.34,40.34,0,1,0,8.4,56.41A40.41,40.41,0,0,0,1325,527.76Zm-11.22,41.88a15.9,15.9,0,1,1-3.32-22.24A15.93,15.93,0,0,1,1313.79,569.64ZM1325,527.76a40.34,40.34,0,1,0,8.4,56.41A40.41,40.41,0,0,0,1325,527.76Zm-11.22,41.88a15.9,15.9,0,1,1-3.32-22.24A15.93,15.93,0,0,1,1313.79,569.64ZM1325,527.76a40.34,40.34,0,1,0,8.4,56.41A40.41,40.41,0,0,0,1325,527.76Zm-11.22,41.88a15.9,15.9,0,1,1-3.32-22.24A15.93,15.93,0,0,1,1313.79,569.64ZM1325,527.76a40.34,40.34,0,1,0,8.4,56.41A40.41,40.41,0,0,0,1325,527.76Zm-11.22,41.88a15.9,15.9,0,1,1-3.32-22.24A15.93,15.93,0,0,1,1313.79,569.64Zm51.21-64.9a83.66,83.66,0,0,0-13.62-12.61A84.67,84.67,0,1,0,1365,615.62c.34-.38.67-.77,1-1.16V505.91C1365.69,505.52,1365.35,505.13,1365,504.74ZM1349.43,596a60.25,60.25,0,1,1-12.57-84.27A60.3,60.3,0,0,1,1349.43,596ZM1325,527.76a40.34,40.34,0,1,0,8.4,56.41A40.41,40.41,0,0,0,1325,527.76Zm-11.22,41.88a15.9,15.9,0,1,1-3.32-22.24A15.93,15.93,0,0,1,1313.79,569.64ZM1325,527.76a40.34,40.34,0,1,0,8.4,56.41A40.41,40.41,0,0,0,1325,527.76Zm-11.22,41.88a15.9,15.9,0,1,1-3.32-22.24A15.93,15.93,0,0,1,1313.79,569.64ZM1325,527.76a40.34,40.34,0,1,0,8.4,56.41A40.41,40.41,0,0,0,1325,527.76Zm-11.22,41.88a15.9,15.9,0,1,1-3.32-22.24A15.93,15.93,0,0,1,1313.79,569.64ZM1325,527.76a40.34,40.34,0,1,0,8.4,56.41A40.41,40.41,0,0,0,1325,527.76Zm-11.22,41.88a15.9,15.9,0,1,1-3.32-22.24A15.93,15.93,0,0,1,1313.79,569.64ZM1325,527.76a40.34,40.34,0,1,0,8.4,56.41A40.41,40.41,0,0,0,1325,527.76Zm-11.22,41.88a15.9,15.9,0,1,1-3.32-22.24A15.93,15.93,0,0,1,1313.79,569.64ZM1325,527.76a40.34,40.34,0,1,0,8.4,56.41A40.41,40.41,0,0,0,1325,527.76Zm-11.22,41.88a15.9,15.9,0,1,1-3.32-22.24A15.93,15.93,0,0,1,1313.79,569.64ZM1325,527.76a40.34,40.34,0,1,0,8.4,56.41A40.41,40.41,0,0,0,1325,527.76Zm-11.22,41.88a15.9,15.9,0,1,1-3.32-22.24A15.93,15.93,0,0,1,1313.79,569.64ZM1325,527.76a40.34,40.34,0,1,0,8.4,56.41A40.41,40.41,0,0,0,1325,527.76Zm-11.22,41.88a15.9,15.9,0,1,1-3.32-22.24A15.93,15.93,0,0,1,1313.79,569.64ZM1325,527.76a40.34,40.34,0,1,0,8.4,56.41A40.41,40.41,0,0,0,1325,527.76Zm-11.22,41.88a15.9,15.9,0,1,1-3.32-22.24A15.93,15.93,0,0,1,1313.79,569.64ZM1325,527.76a40.34,40.34,0,1,0,8.4,56.41A40.41,40.41,0,0,0,1325,527.76Zm-11.22,41.88a15.9,15.9,0,1,1-3.32-22.24A15.93,15.93,0,0,1,1313.79,569.64Zm51.21-64.9a83.66,83.66,0,0,0-13.62-12.61A84.67,84.67,0,1,0,1365,615.62c.34-.38.67-.77,1-1.16V505.91C1365.69,505.52,1365.35,505.13,1365,504.74ZM1349.43,596a60.25,60.25,0,1,1-12.57-84.27A60.3,60.3,0,0,1,1349.43,596ZM1325,527.76a40.34,40.34,0,1,0,8.4,56.41A40.41,40.41,0,0,0,1325,527.76Zm-11.22,41.88a15.9,15.9,0,1,1-3.32-22.24A15.93,15.93,0,0,1,1313.79,569.64ZM1325,527.76a40.34,40.34,0,1,0,8.4,56.41A40.41,40.41,0,0,0,1325,527.76Zm-11.22,41.88a15.9,15.9,0,1,1-3.32-22.24A15.93,15.93,0,0,1,1313.79,569.64ZM1325,527.76a40.34,40.34,0,1,0,8.4,56.41A40.41,40.41,0,0,0,1325,527.76Zm-11.22,41.88a15.9,15.9,0,1,1-3.32-22.24A15.93,15.93,0,0,1,1313.79,569.64ZM1325,527.76a40.34,40.34,0,1,0,8.4,56.41A40.41,40.41,0,0,0,1325,527.76Zm-11.22,41.88a15.9,15.9,0,1,1-3.32-22.24A15.93,15.93,0,0,1,1313.79,569.64ZM1325,527.76a40.34,40.34,0,1,0,8.4,56.41A40.41,40.41,0,0,0,1325,527.76Zm-11.22,41.88a15.9,15.9,0,1,1-3.32-22.24A15.93,15.93,0,0,1,1313.79,569.64Z" transform="translate(-830.52 -176.39)"/>
</svg>
