<svg id="eee1_1" data-name="eee1 1" 
    xmlns="http://www.w3.org/2000/svg" viewBox="0 0 892.56 65.59">
    <defs>
        <style>.eee-1{fill:#e80088;}</style>
    </defs>
    <path class="eee-1" d="M13.43,29.74V11.06H21V12.7H15.22v6.54h5.36v1.59H15.22v7.25h6v1.66Z" transform="translate(-13.43 -11.06)"/>
    <path class="eee-1" d="M24.46,29.74V11.06H32V12.7H26.25v6.54h5.36v1.59H26.25v7.25h6v1.66Z" transform="translate(-13.43 -11.06)"/>
    <path class="eee-1" d="M35.49,29.74V11.06H43V12.7H37.28v6.54h5.36v1.59H37.28v7.25h6v1.66Z" transform="translate(-13.43 -11.06)"/>
    <path class="eee-1" d="M46.52,29.74V11.06H54V12.7H48.31v6.54h5.36v1.59H48.31v7.25h6v1.66Z" transform="translate(-13.43 -11.06)"/>
    <path class="eee-1" d="M57.55,29.74V11.06h7.52V12.7H59.34v6.54H64.7v1.59H59.34v7.25h6v1.66Z" transform="translate(-13.43 -11.06)"/>
    <path class="eee-1" d="M68.58,29.74V11.06H76.1V12.7H70.37v6.54h5.36v1.59H70.37v7.25h6v1.66Z" transform="translate(-13.43 -11.06)"/>
    <path class="eee-1" d="M79.61,29.74V11.06h7.52V12.7H81.4v6.54h5.36v1.59H81.4v7.25h6v1.66Z" transform="translate(-13.43 -11.06)"/>
    <path class="eee-1" d="M90.64,29.74V11.06h7.52V12.7H92.43v6.54h5.36v1.59H92.43v7.25h6v1.66Z" transform="translate(-13.43 -11.06)"/>
    <path class="eee-1" d="M101.67,29.74V11.06h7.52V12.7h-5.73v6.54h5.36v1.59h-5.36v7.25h6v1.66Z" transform="translate(-13.43 -11.06)"/>
    <path class="eee-1" d="M112.7,29.74V11.06h7.52V12.7h-5.73v6.54h5.36v1.59h-5.36v7.25h6v1.66Z" transform="translate(-13.43 -11.06)"/>
    <path class="eee-1" d="M123.72,29.74V11.06h7.52V12.7h-5.72v6.54h5.36v1.59h-5.36v7.25h6v1.66Z" transform="translate(-13.43 -11.06)"/>
    <path class="eee-1" d="M134.75,29.74V11.06h7.52V12.7h-5.72v6.54h5.35v1.59h-5.35v7.25h6v1.66Z" transform="translate(-13.43 -11.06)"/>
    <path class="eee-1" d="M145.78,29.74V11.06h7.52V12.7h-5.72v6.54h5.35v1.59h-5.35v7.25h6v1.66Z" transform="translate(-13.43 -11.06)"/>
    <path class="eee-1" d="M156.81,29.74V11.06h7.52V12.7h-5.72v6.54H164v1.59h-5.35v7.25h6v1.66Z" transform="translate(-13.43 -11.06)"/>
    <path class="eee-1" d="M167.84,29.74V11.06h7.52V12.7h-5.72v6.54H175v1.59h-5.35v7.25h6v1.66Z" transform="translate(-13.43 -11.06)"/>
    <path class="eee-1" d="M178.87,29.74V11.06h7.52V12.7h-5.72v6.54H186v1.59h-5.35v7.25h6v1.66Z" transform="translate(-13.43 -11.06)"/>
    <path class="eee-1" d="M189.9,29.74V11.06h7.52V12.7H191.7v6.54h5.35v1.59H191.7v7.25h6v1.66Z" transform="translate(-13.43 -11.06)"/>
    <path class="eee-1" d="M200.93,29.74V11.06h7.52V12.7h-5.72v6.54h5.35v1.59h-5.35v7.25h6v1.66Z" transform="translate(-13.43 -11.06)"/>
    <path class="eee-1" d="M212,29.74V11.06h7.52V12.7h-5.72v6.54h5.35v1.59h-5.35v7.25h6v1.66Z" transform="translate(-13.43 -11.06)"/>
    <path class="eee-1" d="M223,29.74V11.06h7.52V12.7h-5.72v6.54h5.35v1.59h-5.35v7.25h6v1.66Z" transform="translate(-13.43 -11.06)"/>
    <path class="eee-1" d="M234,29.74V11.06h7.52V12.7h-5.72v6.54h5.35v1.59h-5.35v7.25h6v1.66Z" transform="translate(-13.43 -11.06)"/>
    <path class="eee-1" d="M245.05,29.74V11.06h7.52V12.7h-5.72v6.54h5.35v1.59h-5.35v7.25h6v1.66Z" transform="translate(-13.43 -11.06)"/>
    <path class="eee-1" d="M256.08,29.74V11.06h7.52V12.7h-5.73v6.54h5.36v1.59h-5.36v7.25h6v1.66Z" transform="translate(-13.43 -11.06)"/>
    <path class="eee-1" d="M267.11,29.74V11.06h7.52V12.7H268.9v6.54h5.36v1.59H268.9v7.25h6v1.66Z" transform="translate(-13.43 -11.06)"/>
    <path class="eee-1" d="M278.14,29.74V11.06h7.52V12.7h-5.73v6.54h5.36v1.59h-5.36v7.25h6v1.66Z" transform="translate(-13.43 -11.06)"/>
    <path class="eee-1" d="M289.17,29.74V11.06h7.52V12.7H291v6.54h5.36v1.59H291v7.25h6v1.66Z" transform="translate(-13.43 -11.06)"/>
    <path class="eee-1" d="M300.2,29.74V11.06h7.52V12.7H302v6.54h5.36v1.59H302v7.25h6v1.66Z" transform="translate(-13.43 -11.06)"/>
    <path class="eee-1" d="M311.23,29.74V11.06h7.52V12.7H313v6.54h5.36v1.59H313v7.25h6v1.66Z" transform="translate(-13.43 -11.06)"/>
    <path class="eee-1" d="M322.26,29.74V11.06h7.52V12.7h-5.73v6.54h5.36v1.59h-5.36v7.25h6v1.66Z" transform="translate(-13.43 -11.06)"/>
    <path class="eee-1" d="M333.29,29.74V11.06h7.52V12.7h-5.73v6.54h5.36v1.59h-5.36v7.25h6v1.66Z" transform="translate(-13.43 -11.06)"/>
    <path class="eee-1" d="M344.32,29.74V11.06h7.52V12.7h-5.73v6.54h5.36v1.59h-5.36v7.25h6v1.66Z" transform="translate(-13.43 -11.06)"/>
    <path class="eee-1" d="M355.35,29.74V11.06h7.52V12.7h-5.73v6.54h5.36v1.59h-5.36v7.25h6v1.66Z" transform="translate(-13.43 -11.06)"/>
    <path class="eee-1" d="M366.38,29.74V11.06h7.52V12.7h-5.73v6.54h5.36v1.59h-5.36v7.25h6v1.66Z" transform="translate(-13.43 -11.06)"/>
    <path class="eee-1" d="M377.41,29.74V11.06h7.52V12.7H379.2v6.54h5.36v1.59H379.2v7.25h6v1.66Z" transform="translate(-13.43 -11.06)"/>
    <path class="eee-1" d="M388.44,29.74V11.06H396V12.7h-5.73v6.54h5.36v1.59h-5.36v7.25h6v1.66Z" transform="translate(-13.43 -11.06)"/>
    <path class="eee-1" d="M389.86,53.22V51.56h6V44.3h-5.36V42.72h5.36V36.18h-5.73V34.54h7.52V53.22Z" transform="translate(-13.43 -11.06)"/>
    <path class="eee-1" d="M378.83,53.22V51.56h6V44.3h-5.36V42.72h5.36V36.18h-5.73V34.54h7.52V53.22Z" transform="translate(-13.43 -11.06)"/>
    <path class="eee-1" d="M367.8,53.22V51.56h6V44.3h-5.36V42.72h5.36V36.18h-5.73V34.54h7.52V53.22Z" transform="translate(-13.43 -11.06)"/>
    <path class="eee-1" d="M356.77,53.22V51.56h6V44.3H357.4V42.72h5.36V36.18H357V34.54h7.52V53.22Z" transform="translate(-13.43 -11.06)"/>
    <path class="eee-1" d="M345.74,53.22V51.56h6V44.3h-5.36V42.72h5.36V36.18H346V34.54h7.52V53.22Z" transform="translate(-13.43 -11.06)"/>
    <path class="eee-1" d="M334.71,53.22V51.56h6V44.3h-5.36V42.72h5.36V36.18H335V34.54h7.53V53.22Z" transform="translate(-13.43 -11.06)"/>
    <path class="eee-1" d="M323.68,53.22V51.56h6V44.3h-5.36V42.72h5.36V36.18h-5.73V34.54h7.52V53.22Z" transform="translate(-13.43 -11.06)"/>
    <path class="eee-1" d="M312.65,53.22V51.56h6V44.3h-5.36V42.72h5.36V36.18h-5.73V34.54h7.53V53.22Z" transform="translate(-13.43 -11.06)"/>
    <path class="eee-1" d="M301.62,53.22V51.56h6V44.3h-5.35V42.72h5.35V36.18h-5.72V34.54h7.52V53.22Z" transform="translate(-13.43 -11.06)"/>
    <path class="eee-1" d="M290.59,53.22V51.56h6V44.3h-5.35V42.72h5.35V36.18h-5.72V34.54h7.52V53.22Z" transform="translate(-13.43 -11.06)"/>
    <path class="eee-1" d="M279.56,53.22V51.56h6V44.3H280.2V42.72h5.35V36.18h-5.72V34.54h7.52V53.22Z" transform="translate(-13.43 -11.06)"/>
    <path class="eee-1" d="M268.53,53.22V51.56h6V44.3h-5.35V42.72h5.35V36.18H268.8V34.54h7.52V53.22Z" transform="translate(-13.43 -11.06)"/>
    <path class="eee-1" d="M257.5,53.22V51.56h6V44.3h-5.35V42.72h5.35V36.18h-5.72V34.54h7.52V53.22Z" transform="translate(-13.43 -11.06)"/>
    <path class="eee-1" d="M246.47,53.22V51.56h6V44.3h-5.35V42.72h5.35V36.18h-5.72V34.54h7.52V53.22Z" transform="translate(-13.43 -11.06)"/>
    <path class="eee-1" d="M235.44,53.22V51.56h6V44.3h-5.35V42.72h5.35V36.18h-5.72V34.54h7.52V53.22Z" transform="translate(-13.43 -11.06)"/>
    <path class="eee-1" d="M224.41,53.22V51.56h6V44.3h-5.35V42.72h5.35V36.18h-5.72V34.54h7.52V53.22Z" transform="translate(-13.43 -11.06)"/>
    <path class="eee-1" d="M213.38,53.22V51.56h6V44.3H214V42.72h5.35V36.18h-5.72V34.54h7.52V53.22Z" transform="translate(-13.43 -11.06)"/>
    <path class="eee-1" d="M202.35,53.22V51.56h6V44.3H203V42.72h5.35V36.18h-5.72V34.54h7.52V53.22Z" transform="translate(-13.43 -11.06)"/>
    <path class="eee-1" d="M191.32,53.22V51.56h6V44.3H192V42.72h5.35V36.18h-5.72V34.54h7.52V53.22Z" transform="translate(-13.43 -11.06)"/>
    <path class="eee-1" d="M180.3,53.22V51.56h6V44.3h-5.35V42.72h5.35V36.18h-5.72V34.54h7.52V53.22Z" transform="translate(-13.43 -11.06)"/>
    <path class="eee-1" d="M169.27,53.22V51.56h6V44.3H169.9V42.72h5.36V36.18h-5.73V34.54h7.52V53.22Z" transform="translate(-13.43 -11.06)"/>
    <path class="eee-1" d="M158.24,53.22V51.56h6V44.3h-5.36V42.72h5.36V36.18H158.5V34.54H166V53.22Z" transform="translate(-13.43 -11.06)"/>
    <path class="eee-1" d="M147.21,53.22V51.56h6V44.3h-5.36V42.72h5.36V36.18h-5.73V34.54H155V53.22Z" transform="translate(-13.43 -11.06)"/>
    <path class="eee-1" d="M136.18,53.22V51.56h6V44.3h-5.36V42.72h5.36V36.18h-5.73V34.54H144V53.22Z" transform="translate(-13.43 -11.06)"/>
    <path class="eee-1" d="M125.15,53.22V51.56h6V44.3h-5.36V42.72h5.36V36.18h-5.73V34.54h7.52V53.22Z" transform="translate(-13.43 -11.06)"/>
    <path class="eee-1" d="M114.12,53.22V51.56h6V44.3h-5.36V42.72h5.36V36.18h-5.73V34.54h7.52V53.22Z" transform="translate(-13.43 -11.06)"/>
    <path class="eee-1" d="M103.09,53.22V51.56h6V44.3h-5.36V42.72h5.36V36.18h-5.73V34.54h7.52V53.22Z" transform="translate(-13.43 -11.06)"/>
    <path class="eee-1" d="M92.06,53.22V51.56h6V44.3H92.69V42.72h5.36V36.18H92.32V34.54h7.52V53.22Z" transform="translate(-13.43 -11.06)"/>
    <path class="eee-1" d="M81,53.22V51.56h6V44.3H81.66V42.72H87V36.18H81.29V34.54h7.52V53.22Z" transform="translate(-13.43 -11.06)"/>
    <path class="eee-1" d="M70,53.22V51.56h6V44.3H70.63V42.72H76V36.18H70.26V34.54h7.52V53.22Z" transform="translate(-13.43 -11.06)"/>
    <path class="eee-1" d="M59,53.22V51.56h6V44.3H59.6V42.72H65V36.18H59.23V34.54h7.52V53.22Z" transform="translate(-13.43 -11.06)"/>
    <path class="eee-1" d="M47.94,53.22V51.56h6V44.3H48.57V42.72h5.36V36.18H48.2V34.54h7.52V53.22Z" transform="translate(-13.43 -11.06)"/>
    <path class="eee-1" d="M36.91,53.22V51.56h6V44.3H37.54V42.72H42.9V36.18H37.17V34.54h7.52V53.22Z" transform="translate(-13.43 -11.06)"/>
    <path class="eee-1" d="M25.88,53.22V51.56h6V44.3H26.51V42.72h5.36V36.18H26.14V34.54h7.52V53.22Z" transform="translate(-13.43 -11.06)"/>
    <path class="eee-1" d="M14.85,53.22V51.56h6V44.3H15.48V42.72h5.36V36.18H15.11V34.54h7.52V53.22Z" transform="translate(-13.43 -11.06)"/>
    <path class="eee-1" d="M13.43,76.65V58H21v1.64H15.22v6.54h5.36v1.59H15.22V75h6v1.66Z" transform="translate(-13.43 -11.06)"/>
    <path class="eee-1" d="M24.46,76.65V58H32v1.64H26.25v6.54h5.36v1.59H26.25V75h6v1.66Z" transform="translate(-13.43 -11.06)"/>
    <path class="eee-1" d="M35.49,76.65V58H43v1.64H37.28v6.54h5.36v1.59H37.28V75h6v1.66Z" transform="translate(-13.43 -11.06)"/>
    <path class="eee-1" d="M46.52,76.65V58H54v1.64H48.31v6.54h5.36v1.59H48.31V75h6v1.66Z" transform="translate(-13.43 -11.06)"/>
    <path class="eee-1" d="M57.55,76.65V58h7.52v1.64H59.34v6.54H64.7v1.59H59.34V75h6v1.66Z" transform="translate(-13.43 -11.06)"/>
    <path class="eee-1" d="M68.58,76.65V58H76.1v1.64H70.37v6.54h5.36v1.59H70.37V75h6v1.66Z" transform="translate(-13.43 -11.06)"/>
    <path class="eee-1" d="M79.61,76.65V58h7.52v1.64H81.4v6.54h5.36v1.59H81.4V75h6v1.66Z" transform="translate(-13.43 -11.06)"/>
    <path class="eee-1" d="M90.64,76.65V58h7.52v1.64H92.43v6.54h5.36v1.59H92.43V75h6v1.66Z" transform="translate(-13.43 -11.06)"/>
    <path class="eee-1" d="M101.67,76.65V58h7.52v1.64h-5.73v6.54h5.36v1.59h-5.36V75h6v1.66Z" transform="translate(-13.43 -11.06)"/>
    <path class="eee-1" d="M112.7,76.65V58h7.52v1.64h-5.73v6.54h5.36v1.59h-5.36V75h6v1.66Z" transform="translate(-13.43 -11.06)"/>
    <path class="eee-1" d="M123.72,76.65V58h7.52v1.64h-5.72v6.54h5.36v1.59h-5.36V75h6v1.66Z" transform="translate(-13.43 -11.06)"/>
    <path class="eee-1" d="M134.75,76.65V58h7.52v1.64h-5.72v6.54h5.35v1.59h-5.35V75h6v1.66Z" transform="translate(-13.43 -11.06)"/>
    <path class="eee-1" d="M145.78,76.65V58h7.52v1.64h-5.72v6.54h5.35v1.59h-5.35V75h6v1.66Z" transform="translate(-13.43 -11.06)"/>
    <path class="eee-1" d="M156.81,76.65V58h7.52v1.64h-5.72v6.54H164v1.59h-5.35V75h6v1.66Z" transform="translate(-13.43 -11.06)"/>
    <path class="eee-1" d="M167.84,76.65V58h7.52v1.64h-5.72v6.54H175v1.59h-5.35V75h6v1.66Z" transform="translate(-13.43 -11.06)"/>
    <path class="eee-1" d="M178.87,76.65V58h7.52v1.64h-5.72v6.54H186v1.59h-5.35V75h6v1.66Z" transform="translate(-13.43 -11.06)"/>
    <path class="eee-1" d="M189.9,76.65V58h7.52v1.64H191.7v6.54h5.35v1.59H191.7V75h6v1.66Z" transform="translate(-13.43 -11.06)"/>
    <path class="eee-1" d="M200.93,76.65V58h7.52v1.64h-5.72v6.54h5.35v1.59h-5.35V75h6v1.66Z" transform="translate(-13.43 -11.06)"/>
    <path class="eee-1" d="M212,76.65V58h7.52v1.64h-5.72v6.54h5.35v1.59h-5.35V75h6v1.66Z" transform="translate(-13.43 -11.06)"/>
    <path class="eee-1" d="M223,76.65V58h7.52v1.64h-5.72v6.54h5.35v1.59h-5.35V75h6v1.66Z" transform="translate(-13.43 -11.06)"/>
    <path class="eee-1" d="M234,76.65V58h7.52v1.64h-5.72v6.54h5.35v1.59h-5.35V75h6v1.66Z" transform="translate(-13.43 -11.06)"/>
    <path class="eee-1" d="M245.05,76.65V58h7.52v1.64h-5.72v6.54h5.35v1.59h-5.35V75h6v1.66Z" transform="translate(-13.43 -11.06)"/>
    <path class="eee-1" d="M256.08,76.65V58h7.52v1.64h-5.73v6.54h5.36v1.59h-5.36V75h6v1.66Z" transform="translate(-13.43 -11.06)"/>
    <path class="eee-1" d="M267.11,76.65V58h7.52v1.64H268.9v6.54h5.36v1.59H268.9V75h6v1.66Z" transform="translate(-13.43 -11.06)"/>
    <path class="eee-1" d="M278.14,76.65V58h7.52v1.64h-5.73v6.54h5.36v1.59h-5.36V75h6v1.66Z" transform="translate(-13.43 -11.06)"/>
    <path class="eee-1" d="M289.17,76.65V58h7.52v1.64H291v6.54h5.36v1.59H291V75h6v1.66Z" transform="translate(-13.43 -11.06)"/>
    <path class="eee-1" d="M300.2,76.65V58h7.52v1.64H302v6.54h5.36v1.59H302V75h6v1.66Z" transform="translate(-13.43 -11.06)"/>
    <path class="eee-1" d="M311.23,76.65V58h7.52v1.64H313v6.54h5.36v1.59H313V75h6v1.66Z" transform="translate(-13.43 -11.06)"/>
    <path class="eee-1" d="M322.26,76.65V58h7.52v1.64h-5.73v6.54h5.36v1.59h-5.36V75h6v1.66Z" transform="translate(-13.43 -11.06)"/>
    <path class="eee-1" d="M333.29,76.65V58h7.52v1.64h-5.73v6.54h5.36v1.59h-5.36V75h6v1.66Z" transform="translate(-13.43 -11.06)"/>
    <path class="eee-1" d="M344.32,76.65V58h7.52v1.64h-5.73v6.54h5.36v1.59h-5.36V75h6v1.66Z" transform="translate(-13.43 -11.06)"/>
    <path class="eee-1" d="M355.35,76.65V58h7.52v1.64h-5.73v6.54h5.36v1.59h-5.36V75h6v1.66Z" transform="translate(-13.43 -11.06)"/>
    <path class="eee-1" d="M366.38,76.65V58h7.52v1.64h-5.73v6.54h5.36v1.59h-5.36V75h6v1.66Z" transform="translate(-13.43 -11.06)"/>
    <path class="eee-1" d="M377.41,76.65V58h7.52v1.64H379.2v6.54h5.36v1.59H379.2V75h6v1.66Z" transform="translate(-13.43 -11.06)"/>
    <path class="eee-1" d="M388.44,76.65V58H396v1.64h-5.73v6.54h5.36v1.59h-5.36V75h6v1.66Z" transform="translate(-13.43 -11.06)"/>
    <path class="eee-1" d="M400.56,29.74V11.06h7.52V12.7h-5.72v6.54h5.35v1.59h-5.35v7.25h6v1.66Z" transform="translate(-13.43 -11.06)"/>
    <path class="eee-1" d="M411.59,29.74V11.06h7.52V12.7h-5.72v6.54h5.35v1.59h-5.35v7.25h6v1.66Z" transform="translate(-13.43 -11.06)"/>
    <path class="eee-1" d="M422.62,29.74V11.06h7.52V12.7h-5.72v6.54h5.35v1.59h-5.35v7.25h6v1.66Z" transform="translate(-13.43 -11.06)"/>
    <path class="eee-1" d="M433.65,29.74V11.06h7.52V12.7h-5.72v6.54h5.35v1.59h-5.35v7.25h6v1.66Z" transform="translate(-13.43 -11.06)"/>
    <path class="eee-1" d="M444.68,29.74V11.06h7.52V12.7h-5.72v6.54h5.35v1.59h-5.35v7.25h6v1.66Z" transform="translate(-13.43 -11.06)"/>
    <path class="eee-1" d="M455.71,29.74V11.06h7.52V12.7h-5.72v6.54h5.35v1.59h-5.35v7.25h6v1.66Z" transform="translate(-13.43 -11.06)"/>
    <path class="eee-1" d="M466.74,29.74V11.06h7.52V12.7h-5.72v6.54h5.35v1.59h-5.35v7.25h6v1.66Z" transform="translate(-13.43 -11.06)"/>
    <path class="eee-1" d="M477.77,29.74V11.06h7.52V12.7h-5.72v6.54h5.35v1.59h-5.35v7.25h6v1.66Z" transform="translate(-13.43 -11.06)"/>
    <path class="eee-1" d="M488.8,29.74V11.06h7.52V12.7h-5.73v6.54H496v1.59h-5.36v7.25h6v1.66Z" transform="translate(-13.43 -11.06)"/>
    <path class="eee-1" d="M499.83,29.74V11.06h7.52V12.7h-5.73v6.54H507v1.59h-5.36v7.25h6v1.66Z" transform="translate(-13.43 -11.06)"/>
    <path class="eee-1" d="M510.86,29.74V11.06h7.52V12.7h-5.73v6.54H518v1.59h-5.36v7.25h6v1.66Z" transform="translate(-13.43 -11.06)"/>
    <path class="eee-1" d="M521.89,29.74V11.06h7.52V12.7h-5.73v6.54H529v1.59h-5.36v7.25h6v1.66Z" transform="translate(-13.43 -11.06)"/>
    <path class="eee-1" d="M532.92,29.74V11.06h7.52V12.7h-5.73v6.54h5.36v1.59h-5.36v7.25h6v1.66Z" transform="translate(-13.43 -11.06)"/>
    <path class="eee-1" d="M544,29.74V11.06h7.52V12.7h-5.73v6.54h5.36v1.59h-5.36v7.25h6v1.66Z" transform="translate(-13.43 -11.06)"/>
    <path class="eee-1" d="M555,29.74V11.06h7.52V12.7h-5.73v6.54h5.36v1.59h-5.36v7.25h6v1.66Z" transform="translate(-13.43 -11.06)"/>
    <path class="eee-1" d="M566,29.74V11.06h7.52V12.7H567.8v6.54h5.36v1.59H567.8v7.25h6v1.66Z" transform="translate(-13.43 -11.06)"/>
    <path class="eee-1" d="M577,29.74V11.06h7.52V12.7h-5.73v6.54h5.36v1.59h-5.36v7.25h6v1.66Z" transform="translate(-13.43 -11.06)"/>
    <path class="eee-1" d="M588.07,29.74V11.06h7.52V12.7h-5.73v6.54h5.36v1.59h-5.36v7.25h6v1.66Z" transform="translate(-13.43 -11.06)"/>
    <path class="eee-1" d="M599.1,29.74V11.06h7.52V12.7h-5.73v6.54h5.36v1.59h-5.36v7.25h6v1.66Z" transform="translate(-13.43 -11.06)"/>
    <path class="eee-1" d="M610.13,29.74V11.06h7.52V12.7h-5.73v6.54h5.36v1.59h-5.36v7.25h6v1.66Z" transform="translate(-13.43 -11.06)"/>
    <path class="eee-1" d="M621.16,29.74V11.06h7.52V12.7H623v6.54h5.36v1.59H623v7.25h6v1.66Z" transform="translate(-13.43 -11.06)"/>
    <path class="eee-1" d="M632.19,29.74V11.06h7.52V12.7H634v6.54h5.36v1.59H634v7.25h6v1.66Z" transform="translate(-13.43 -11.06)"/>
    <path class="eee-1" d="M643.22,29.74V11.06h7.52V12.7H645v6.54h5.36v1.59H645v7.25h6v1.66Z" transform="translate(-13.43 -11.06)"/>
    <path class="eee-1" d="M654.25,29.74V11.06h7.52V12.7H656v6.54h5.36v1.59H656v7.25h6v1.66Z" transform="translate(-13.43 -11.06)"/>
    <path class="eee-1" d="M665.28,29.74V11.06h7.52V12.7h-5.73v6.54h5.36v1.59h-5.36v7.25h6v1.66Z" transform="translate(-13.43 -11.06)"/>
    <path class="eee-1" d="M676.3,29.74V11.06h7.53V12.7H678.1v6.54h5.36v1.59H678.1v7.25h6v1.66Z" transform="translate(-13.43 -11.06)"/>
    <path class="eee-1" d="M687.33,29.74V11.06h7.52V12.7h-5.72v6.54h5.36v1.59h-5.36v7.25h6v1.66Z" transform="translate(-13.43 -11.06)"/>
    <path class="eee-1" d="M698.36,29.74V11.06h7.52V12.7h-5.72v6.54h5.36v1.59h-5.36v7.25h6v1.66Z" transform="translate(-13.43 -11.06)"/>
    <path class="eee-1" d="M709.39,29.74V11.06h7.52V12.7h-5.72v6.54h5.36v1.59h-5.36v7.25h6v1.66Z" transform="translate(-13.43 -11.06)"/>
    <path class="eee-1" d="M720.42,29.74V11.06h7.52V12.7h-5.72v6.54h5.35v1.59h-5.35v7.25h6v1.66Z" transform="translate(-13.43 -11.06)"/>
    <path class="eee-1" d="M731.45,29.74V11.06H739V12.7h-5.72v6.54h5.35v1.59h-5.35v7.25h6v1.66Z" transform="translate(-13.43 -11.06)"/>
    <path class="eee-1" d="M742.48,29.74V11.06H750V12.7h-5.72v6.54h5.35v1.59h-5.35v7.25h6v1.66Z" transform="translate(-13.43 -11.06)"/>
    <path class="eee-1" d="M753.51,29.74V11.06H761V12.7h-5.72v6.54h5.35v1.59h-5.35v7.25h6v1.66Z" transform="translate(-13.43 -11.06)"/>
    <path class="eee-1" d="M764.54,29.74V11.06h7.52V12.7h-5.72v6.54h5.35v1.59h-5.35v7.25h6v1.66Z" transform="translate(-13.43 -11.06)"/>
    <path class="eee-1" d="M775.57,29.74V11.06h7.52V12.7h-5.72v6.54h5.35v1.59h-5.35v7.25h6v1.66Z" transform="translate(-13.43 -11.06)"/>
    <path class="eee-1" d="M777,53.22V51.56h6V44.3h-5.35V42.72H783V36.18h-5.72V34.54h7.52V53.22Z" transform="translate(-13.43 -11.06)"/>
    <path class="eee-1" d="M766,53.22V51.56h6V44.3H766.6V42.72H772V36.18h-5.72V34.54h7.52V53.22Z" transform="translate(-13.43 -11.06)"/>
    <path class="eee-1" d="M754.94,53.22V51.56h6V44.3h-5.36V42.72h5.36V36.18H755.2V34.54h7.52V53.22Z" transform="translate(-13.43 -11.06)"/>
    <path class="eee-1" d="M743.91,53.22V51.56h6V44.3h-5.36V42.72h5.36V36.18h-5.73V34.54h7.52V53.22Z" transform="translate(-13.43 -11.06)"/>
    <path class="eee-1" d="M732.88,53.22V51.56h6V44.3h-5.36V42.72h5.36V36.18h-5.73V34.54h7.52V53.22Z" transform="translate(-13.43 -11.06)"/>
    <path class="eee-1" d="M721.85,53.22V51.56h6V44.3h-5.36V42.72h5.36V36.18h-5.73V34.54h7.52V53.22Z" transform="translate(-13.43 -11.06)"/>
    <path class="eee-1" d="M710.82,53.22V51.56h6V44.3h-5.36V42.72h5.36V36.18h-5.73V34.54h7.52V53.22Z" transform="translate(-13.43 -11.06)"/>
    <path class="eee-1" d="M699.79,53.22V51.56h6V44.3h-5.36V42.72h5.36V36.18h-5.73V34.54h7.52V53.22Z" transform="translate(-13.43 -11.06)"/>
    <path class="eee-1" d="M688.76,53.22V51.56h6V44.3h-5.36V42.72h5.36V36.18H689V34.54h7.52V53.22Z" transform="translate(-13.43 -11.06)"/>
    <path class="eee-1" d="M677.73,53.22V51.56h6V44.3h-5.36V42.72h5.36V36.18H678V34.54h7.52V53.22Z" transform="translate(-13.43 -11.06)"/>
    <path class="eee-1" d="M666.7,53.22V51.56h6V44.3h-5.36V42.72h5.36V36.18H667V34.54h7.52V53.22Z" transform="translate(-13.43 -11.06)"/>
    <path class="eee-1" d="M655.67,53.22V51.56h6V44.3H656.3V42.72h5.36V36.18h-5.73V34.54h7.52V53.22Z" transform="translate(-13.43 -11.06)"/>
    <path class="eee-1" d="M644.64,53.22V51.56h6V44.3h-5.36V42.72h5.36V36.18H644.9V34.54h7.52V53.22Z" transform="translate(-13.43 -11.06)"/>
    <path class="eee-1" d="M633.61,53.22V51.56h6V44.3h-5.36V42.72h5.36V36.18h-5.73V34.54h7.52V53.22Z" transform="translate(-13.43 -11.06)"/>
    <path class="eee-1" d="M622.58,53.22V51.56h6V44.3h-5.36V42.72h5.36V36.18h-5.73V34.54h7.52V53.22Z" transform="translate(-13.43 -11.06)"/>
    <path class="eee-1" d="M611.55,53.22V51.56h6V44.3h-5.36V42.72h5.36V36.18h-5.73V34.54h7.52V53.22Z" transform="translate(-13.43 -11.06)"/>
    <path class="eee-1" d="M600.52,53.22V51.56h6V44.3h-5.36V42.72h5.36V36.18h-5.73V34.54h7.52V53.22Z" transform="translate(-13.43 -11.06)"/>
    <path class="eee-1" d="M589.49,53.22V51.56h6V44.3h-5.36V42.72h5.36V36.18h-5.73V34.54h7.52V53.22Z" transform="translate(-13.43 -11.06)"/>
    <path class="eee-1" d="M578.46,53.22V51.56h6V44.3h-5.36V42.72h5.36V36.18h-5.73V34.54h7.52V53.22Z" transform="translate(-13.43 -11.06)"/>
    <path class="eee-1" d="M567.43,53.22V51.56h6V44.3h-5.36V42.72h5.36V36.18h-5.73V34.54h7.53V53.22Z" transform="translate(-13.43 -11.06)"/>
    <path class="eee-1" d="M556.4,53.22V51.56h6V44.3H557V42.72h5.36V36.18h-5.72V34.54h7.52V53.22Z" transform="translate(-13.43 -11.06)"/>
    <path class="eee-1" d="M545.37,53.22V51.56h6V44.3H546V42.72h5.36V36.18h-5.72V34.54h7.52V53.22Z" transform="translate(-13.43 -11.06)"/>
    <path class="eee-1" d="M534.34,53.22V51.56h6V44.3H535V42.72h5.36V36.18h-5.72V34.54h7.52V53.22Z" transform="translate(-13.43 -11.06)"/>
    <path class="eee-1" d="M523.31,53.22V51.56h6V44.3H524V42.72h5.35V36.18h-5.72V34.54h7.52V53.22Z" transform="translate(-13.43 -11.06)"/>
    <path class="eee-1" d="M512.28,53.22V51.56h6V44.3h-5.35V42.72h5.35V36.18h-5.72V34.54h7.52V53.22Z" transform="translate(-13.43 -11.06)"/>
    <path class="eee-1" d="M501.25,53.22V51.56h6V44.3h-5.35V42.72h5.35V36.18h-5.72V34.54H509V53.22Z" transform="translate(-13.43 -11.06)"/>
    <path class="eee-1" d="M490.22,53.22V51.56h6V44.3h-5.35V42.72h5.35V36.18h-5.72V34.54H498V53.22Z" transform="translate(-13.43 -11.06)"/>
    <path class="eee-1" d="M479.19,53.22V51.56h6V44.3h-5.35V42.72h5.35V36.18h-5.72V34.54H487V53.22Z" transform="translate(-13.43 -11.06)"/>
    <path class="eee-1" d="M468.16,53.22V51.56h6V44.3H468.8V42.72h5.35V36.18h-5.72V34.54H476V53.22Z" transform="translate(-13.43 -11.06)"/>
    <path class="eee-1" d="M457.13,53.22V51.56h6V44.3h-5.35V42.72h5.35V36.18H457.4V34.54h7.52V53.22Z" transform="translate(-13.43 -11.06)"/>
    <path class="eee-1" d="M446.1,53.22V51.56h6V44.3h-5.35V42.72h5.35V36.18h-5.72V34.54h7.52V53.22Z" transform="translate(-13.43 -11.06)"/>
    <path class="eee-1" d="M435.07,53.22V51.56h6V44.3h-5.35V42.72h5.35V36.18h-5.72V34.54h7.52V53.22Z" transform="translate(-13.43 -11.06)"/>
    <path class="eee-1" d="M424,53.22V51.56h6V44.3h-5.36V42.72H430V36.18h-5.73V34.54h7.52V53.22Z" transform="translate(-13.43 -11.06)"/>
    <path class="eee-1" d="M413,53.22V51.56h6V44.3h-5.36V42.72H419V36.18h-5.73V34.54h7.52V53.22Z" transform="translate(-13.43 -11.06)"/>
    <path class="eee-1" d="M402,53.22V51.56h6V44.3h-5.36V42.72H408V36.18h-5.73V34.54h7.52V53.22Z" transform="translate(-13.43 -11.06)"/>
    <path class="eee-1" d="M400.56,76.65V58h7.52v1.64h-5.72v6.54h5.35v1.59h-5.35V75h6v1.66Z" transform="translate(-13.43 -11.06)"/>
    <path class="eee-1" d="M411.59,76.65V58h7.52v1.64h-5.72v6.54h5.35v1.59h-5.35V75h6v1.66Z" transform="translate(-13.43 -11.06)"/>
    <path class="eee-1" d="M422.62,76.65V58h7.52v1.64h-5.72v6.54h5.35v1.59h-5.35V75h6v1.66Z" transform="translate(-13.43 -11.06)"/>
    <path class="eee-1" d="M433.65,76.65V58h7.52v1.64h-5.72v6.54h5.35v1.59h-5.35V75h6v1.66Z" transform="translate(-13.43 -11.06)"/>
    <path class="eee-1" d="M444.68,76.65V58h7.52v1.64h-5.72v6.54h5.35v1.59h-5.35V75h6v1.66Z" transform="translate(-13.43 -11.06)"/>
    <path class="eee-1" d="M455.71,76.65V58h7.52v1.64h-5.72v6.54h5.35v1.59h-5.35V75h6v1.66Z" transform="translate(-13.43 -11.06)"/>
    <path class="eee-1" d="M466.74,76.65V58h7.52v1.64h-5.72v6.54h5.35v1.59h-5.35V75h6v1.66Z" transform="translate(-13.43 -11.06)"/>
    <path class="eee-1" d="M477.77,76.65V58h7.52v1.64h-5.72v6.54h5.35v1.59h-5.35V75h6v1.66Z" transform="translate(-13.43 -11.06)"/>
    <path class="eee-1" d="M488.8,76.65V58h7.52v1.64h-5.73v6.54H496v1.59h-5.36V75h6v1.66Z" transform="translate(-13.43 -11.06)"/>
    <path class="eee-1" d="M499.83,76.65V58h7.52v1.64h-5.73v6.54H507v1.59h-5.36V75h6v1.66Z" transform="translate(-13.43 -11.06)"/>
    <path class="eee-1" d="M510.86,76.65V58h7.52v1.64h-5.73v6.54H518v1.59h-5.36V75h6v1.66Z" transform="translate(-13.43 -11.06)"/>
    <path class="eee-1" d="M521.89,76.65V58h7.52v1.64h-5.73v6.54H529v1.59h-5.36V75h6v1.66Z" transform="translate(-13.43 -11.06)"/>
    <path class="eee-1" d="M532.92,76.65V58h7.52v1.64h-5.73v6.54h5.36v1.59h-5.36V75h6v1.66Z" transform="translate(-13.43 -11.06)"/>
    <path class="eee-1" d="M544,76.65V58h7.52v1.64h-5.73v6.54h5.36v1.59h-5.36V75h6v1.66Z" transform="translate(-13.43 -11.06)"/>
    <path class="eee-1" d="M555,76.65V58h7.52v1.64h-5.73v6.54h5.36v1.59h-5.36V75h6v1.66Z" transform="translate(-13.43 -11.06)"/>
    <path class="eee-1" d="M566,76.65V58h7.52v1.64H567.8v6.54h5.36v1.59H567.8V75h6v1.66Z" transform="translate(-13.43 -11.06)"/>
    <path class="eee-1" d="M577,76.65V58h7.52v1.64h-5.73v6.54h5.36v1.59h-5.36V75h6v1.66Z" transform="translate(-13.43 -11.06)"/>
    <path class="eee-1" d="M588.07,76.65V58h7.52v1.64h-5.73v6.54h5.36v1.59h-5.36V75h6v1.66Z" transform="translate(-13.43 -11.06)"/>
    <path class="eee-1" d="M599.1,76.65V58h7.52v1.64h-5.73v6.54h5.36v1.59h-5.36V75h6v1.66Z" transform="translate(-13.43 -11.06)"/>
    <path class="eee-1" d="M610.13,76.65V58h7.52v1.64h-5.73v6.54h5.36v1.59h-5.36V75h6v1.66Z" transform="translate(-13.43 -11.06)"/>
    <path class="eee-1" d="M621.16,76.65V58h7.52v1.64H623v6.54h5.36v1.59H623V75h6v1.66Z" transform="translate(-13.43 -11.06)"/>
    <path class="eee-1" d="M632.19,76.65V58h7.52v1.64H634v6.54h5.36v1.59H634V75h6v1.66Z" transform="translate(-13.43 -11.06)"/>
    <path class="eee-1" d="M643.22,76.65V58h7.52v1.64H645v6.54h5.36v1.59H645V75h6v1.66Z" transform="translate(-13.43 -11.06)"/>
    <path class="eee-1" d="M654.25,76.65V58h7.52v1.64H656v6.54h5.36v1.59H656V75h6v1.66Z" transform="translate(-13.43 -11.06)"/>
    <path class="eee-1" d="M665.28,76.65V58h7.52v1.64h-5.73v6.54h5.36v1.59h-5.36V75h6v1.66Z" transform="translate(-13.43 -11.06)"/>
    <path class="eee-1" d="M676.3,76.65V58h7.53v1.64H678.1v6.54h5.36v1.59H678.1V75h6v1.66Z" transform="translate(-13.43 -11.06)"/>
    <path class="eee-1" d="M687.33,76.65V58h7.52v1.64h-5.72v6.54h5.36v1.59h-5.36V75h6v1.66Z" transform="translate(-13.43 -11.06)"/>
    <path class="eee-1" d="M698.36,76.65V58h7.52v1.64h-5.72v6.54h5.36v1.59h-5.36V75h6v1.66Z" transform="translate(-13.43 -11.06)"/>
    <path class="eee-1" d="M709.39,76.65V58h7.52v1.64h-5.72v6.54h5.36v1.59h-5.36V75h6v1.66Z" transform="translate(-13.43 -11.06)"/>
    <path class="eee-1" d="M720.42,76.65V58h7.52v1.64h-5.72v6.54h5.35v1.59h-5.35V75h6v1.66Z" transform="translate(-13.43 -11.06)"/>
    <path class="eee-1" d="M731.45,76.65V58H739v1.64h-5.72v6.54h5.35v1.59h-5.35V75h6v1.66Z" transform="translate(-13.43 -11.06)"/>
    <path class="eee-1" d="M742.48,76.65V58H750v1.64h-5.72v6.54h5.35v1.59h-5.35V75h6v1.66Z" transform="translate(-13.43 -11.06)"/>
    <path class="eee-1" d="M753.51,76.65V58H761v1.64h-5.72v6.54h5.35v1.59h-5.35V75h6v1.66Z" transform="translate(-13.43 -11.06)"/>
    <path class="eee-1" d="M764.54,76.65V58h7.52v1.64h-5.72v6.54h5.35v1.59h-5.35V75h6v1.66Z" transform="translate(-13.43 -11.06)"/>
    <path class="eee-1" d="M775.57,76.65V58h7.52v1.64h-5.72v6.54h5.35v1.59h-5.35V75h6v1.66Z" transform="translate(-13.43 -11.06)"/>
    <path class="eee-1" d="M786.48,29.74V11.06H794V12.7h-5.72v6.54h5.36v1.59h-5.36v7.25h6v1.66Z" transform="translate(-13.43 -11.06)"/>
    <path class="eee-1" d="M797.51,29.74V11.06H805V12.7h-5.72v6.54h5.35v1.59h-5.35v7.25h6v1.66Z" transform="translate(-13.43 -11.06)"/>
    <path class="eee-1" d="M808.54,29.74V11.06h7.52V12.7h-5.72v6.54h5.35v1.59h-5.35v7.25h6v1.66Z" transform="translate(-13.43 -11.06)"/>
    <path class="eee-1" d="M819.57,29.74V11.06h7.52V12.7h-5.72v6.54h5.35v1.59h-5.35v7.25h6v1.66Z" transform="translate(-13.43 -11.06)"/>
    <path class="eee-1" d="M830.6,29.74V11.06h7.52V12.7H832.4v6.54h5.35v1.59H832.4v7.25h6v1.66Z" transform="translate(-13.43 -11.06)"/>
    <path class="eee-1" d="M841.63,29.74V11.06h7.52V12.7h-5.72v6.54h5.35v1.59h-5.35v7.25h6v1.66Z" transform="translate(-13.43 -11.06)"/>
    <path class="eee-1" d="M852.66,29.74V11.06h7.52V12.7h-5.72v6.54h5.35v1.59h-5.35v7.25h6v1.66Z" transform="translate(-13.43 -11.06)"/>
    <path class="eee-1" d="M863.69,29.74V11.06h7.52V12.7h-5.72v6.54h5.35v1.59h-5.35v7.25h6v1.66Z" transform="translate(-13.43 -11.06)"/>
    <path class="eee-1" d="M874.72,29.74V11.06h7.52V12.7h-5.72v6.54h5.35v1.59h-5.35v7.25h6v1.66Z" transform="translate(-13.43 -11.06)"/>
    <path class="eee-1" d="M885.75,29.74V11.06h7.52V12.7h-5.72v6.54h5.35v1.59h-5.35v7.25h6v1.66Z" transform="translate(-13.43 -11.06)"/>
    <path class="eee-1" d="M896.78,29.74V11.06h7.52V12.7h-5.73v6.54h5.36v1.59h-5.36v7.25h6v1.66Z" transform="translate(-13.43 -11.06)"/>
    <path class="eee-1" d="M898.2,53.22V51.56h6V44.3h-5.35V42.72h5.35V36.18h-5.72V34.54H906V53.22Z" transform="translate(-13.43 -11.06)"/>
    <path class="eee-1" d="M887.17,53.22V51.56h6V44.3h-5.35V42.72h5.35V36.18h-5.72V34.54H895V53.22Z" transform="translate(-13.43 -11.06)"/>
    <path class="eee-1" d="M876.14,53.22V51.56h6V44.3h-5.35V42.72h5.35V36.18h-5.72V34.54h7.52V53.22Z" transform="translate(-13.43 -11.06)"/>
    <path class="eee-1" d="M865.11,53.22V51.56h6V44.3h-5.35V42.72h5.35V36.18h-5.72V34.54h7.52V53.22Z" transform="translate(-13.43 -11.06)"/>
    <path class="eee-1" d="M854.08,53.22V51.56h6V44.3h-5.35V42.72h5.35V36.18h-5.72V34.54h7.52V53.22Z" transform="translate(-13.43 -11.06)"/>
    <path class="eee-1" d="M843.05,53.22V51.56h6V44.3h-5.35V42.72H849V36.18h-5.72V34.54h7.52V53.22Z" transform="translate(-13.43 -11.06)"/>
    <path class="eee-1" d="M832,53.22V51.56h6V44.3h-5.36V42.72H838V36.18h-5.73V34.54h7.52V53.22Z" transform="translate(-13.43 -11.06)"/>
    <path class="eee-1" d="M821,53.22V51.56h6V44.3h-5.36V42.72H827V36.18h-5.73V34.54h7.52V53.22Z" transform="translate(-13.43 -11.06)"/>
    <path class="eee-1" d="M810,53.22V51.56h6V44.3H810.6V42.72H816V36.18h-5.73V34.54h7.52V53.22Z" transform="translate(-13.43 -11.06)"/>
    <path class="eee-1" d="M798.94,53.22V51.56h6V44.3h-5.36V42.72h5.36V36.18H799.2V34.54h7.52V53.22Z" transform="translate(-13.43 -11.06)"/>
    <path class="eee-1" d="M787.91,53.22V51.56h6V44.3h-5.36V42.72h5.36V36.18h-5.73V34.54h7.52V53.22Z" transform="translate(-13.43 -11.06)"/>
    <path class="eee-1" d="M786.48,76.65V58H794v1.64h-5.72v6.54h5.36v1.59h-5.36V75h6v1.66Z" transform="translate(-13.43 -11.06)"/>
    <path class="eee-1" d="M797.51,76.65V58H805v1.64h-5.72v6.54h5.35v1.59h-5.35V75h6v1.66Z" transform="translate(-13.43 -11.06)"/>
    <path class="eee-1" d="M808.54,76.65V58h7.52v1.64h-5.72v6.54h5.35v1.59h-5.35V75h6v1.66Z" transform="translate(-13.43 -11.06)"/>
    <path class="eee-1" d="M819.57,76.65V58h7.52v1.64h-5.72v6.54h5.35v1.59h-5.35V75h6v1.66Z" transform="translate(-13.43 -11.06)"/>
    <path class="eee-1" d="M830.6,76.65V58h7.52v1.64H832.4v6.54h5.35v1.59H832.4V75h6v1.66Z" transform="translate(-13.43 -11.06)"/>
    <path class="eee-1" d="M841.63,76.65V58h7.52v1.64h-5.72v6.54h5.35v1.59h-5.35V75h6v1.66Z" transform="translate(-13.43 -11.06)"/>
    <path class="eee-1" d="M852.66,76.65V58h7.52v1.64h-5.72v6.54h5.35v1.59h-5.35V75h6v1.66Z" transform="translate(-13.43 -11.06)"/>
    <path class="eee-1" d="M863.69,76.65V58h7.52v1.64h-5.72v6.54h5.35v1.59h-5.35V75h6v1.66Z" transform="translate(-13.43 -11.06)"/>
    <path class="eee-1" d="M874.72,76.65V58h7.52v1.64h-5.72v6.54h5.35v1.59h-5.35V75h6v1.66Z" transform="translate(-13.43 -11.06)"/>
    <path class="eee-1" d="M885.75,76.65V58h7.52v1.64h-5.72v6.54h5.35v1.59h-5.35V75h6v1.66Z" transform="translate(-13.43 -11.06)"/>
    <path class="eee-1" d="M896.78,76.65V58h7.52v1.64h-5.73v6.54h5.36v1.59h-5.36V75h6v1.66Z" transform="translate(-13.43 -11.06)"/>
</svg>