<svg id="saludvisual_1" data-name="saludvisual 1" xmlns="http://www.w3.org/2000/svg" viewBox="0 0 122.48 120.83">
  <defs>
    <style>
      .saludvisual-1 {
        fill: #fff;
      }
    </style>
  </defs>
  <g>
    <path class="saludvisual-1" d="M25.94,97.94a2.69,2.69,0,0,0-2.22-1c-1,0-2.08.47-2.08,1.63,0,2.54,6,1.09,6,5.61,0,2.71-2.14,4-4.63,4a5.21,5.21,0,0,1-4.15-1.72l1.7-1.64a3,3,0,0,0,2.5,1.32c1,0,2.22-.57,2.22-1.74,0-2.77-6-1.18-6-5.71,0-2.61,2.32-3.83,4.67-3.83a5.2,5.2,0,0,1,3.63,1.31Z" transform="translate(-18.87 -2.61)"/>
    <path class="saludvisual-1" d="M34.1,95.22h1.95l5.46,12.68H38.93L37.75,105h-5.5l-1.14,2.9H28.58ZM37,103.06l-2-5.15-2,5.15Z" transform="translate(-18.87 -2.61)"/>
    <polygon class="saludvisual-1" points="24.05 92.61 26.31 92.61 26.31 103.24 31.7 103.24 31.7 105.28 24.05 105.28 24.05 92.61"/>
    <path class="saludvisual-1" d="M62.36,103.24a4.82,4.82,0,0,1-5.11,5,4.81,4.81,0,0,1-5.1-5v-8h2.26v8a2.85,2.85,0,1,0,5.69,0v-8h2.26Z" transform="translate(-18.87 -2.61)"/>
    <path class="saludvisual-1" d="M65.13,95.22h5c3.33,0,6.45,2,6.45,6.34s-3.67,6.34-6.72,6.34H65.13Zm3.94,10.64c2.82,0,5.13-1.22,5.13-4.3s-2-4.3-4.76-4.3H67.38v8.6Z" transform="translate(-18.87 -2.61)"/>
    <polygon class="saludvisual-1" points="58.47 92.61 61.66 92.61 64.79 100.92 64.82 100.92 68.01 92.61 71 92.61 65.77 105.28 63.53 105.28 58.47 92.61"/>
    <rect class="saludvisual-1" x="72.28" y="92.61" width="2.79" height="12.67"/>
    <path class="saludvisual-1" d="M102.75,98.32a2.73,2.73,0,0,0-2-.84c-.78,0-1.87.36-1.87,1.31,0,2.31,5.83.82,5.83,5.26,0,2.83-2.27,4.17-4.89,4.17a6,6,0,0,1-4.26-1.59l2-2.19a3.07,3.07,0,0,0,2.44,1.2c.91,0,1.93-.43,1.93-1.32,0-2.33-5.94-1.08-5.94-5.3,0-2.7,2.34-4.12,4.83-4.12a5.71,5.71,0,0,1,3.88,1.33Z" transform="translate(-18.87 -2.61)"/>
    <path class="saludvisual-1" d="M117.44,103c0,3-1.82,5.21-5.33,5.21s-5.36-2.22-5.36-5.21V95.22h2.8v7.68a2.56,2.56,0,1,0,5.1,0V95.22h2.79Z" transform="translate(-18.87 -2.61)"/>
    <path class="saludvisual-1" d="M124.19,95.22h2.31L132,107.9h-3.15l-1.09-2.69h-4.92l-1.06,2.69h-3.08Zm1.07,3.69-1.54,3.94h3.1Z" transform="translate(-18.87 -2.61)"/>
    <polygon class="saludvisual-1" points="114.52 92.61 117.31 92.61 117.31 102.71 122.48 102.71 122.48 105.28 114.52 105.28 114.52 92.61"/>
    <polygon class="saludvisual-1" points="0.98 110.72 2.35 110.72 5.95 118.99 9.54 110.72 10.85 110.72 10.85 120.58 9.93 120.58 9.93 111.89 9.9 111.89 6.14 120.58 5.74 120.58 1.92 111.89 1.9 111.89 1.9 120.58 0.98 120.58 0.98 110.72"/>
    <path class="saludvisual-1" d="M46.12,113.33h6v.83H47v3.51h4.79v.84H47v3.84h5.34v.84H46.12Zm3.43-2.62h1.11l-1.86,2h-.7Z" transform="translate(-18.87 -2.61)"/>
    <polygon class="saludvisual-1" points="51.69 115.39 48.32 110.72 49.4 110.72 52.24 114.73 55.05 110.72 56.15 110.72 52.8 115.39 56.47 120.58 55.32 120.58 52.2 116.12 49.08 120.58 47.98 120.58 51.69 115.39"/>
    <rect class="saludvisual-1" x="71.63" y="110.72" width="0.92" height="9.86"/>
    <path class="saludvisual-1" d="M116,121.64a4.28,4.28,0,0,1-3.66,1.8,5.18,5.18,0,0,1,0-10.36,4.09,4.09,0,0,1,3.4,1.54l-.75.63a3.16,3.16,0,0,0-2.65-1.34,4.35,4.35,0,0,0,0,8.69,3.54,3.54,0,0,0,2.91-1.53Z" transform="translate(-18.87 -2.61)"/>
    <path class="saludvisual-1" d="M136,113.08a5.18,5.18,0,1,1-5.1,5.18,4.94,4.94,0,0,1,5.1-5.18m0,9.52a4.35,4.35,0,1,0-4.18-4.34A4.07,4.07,0,0,0,136,122.6" transform="translate(-18.87 -2.61)"/>
    <path class="saludvisual-1" d="M76.12,12.27a27.86,27.86,0,0,1,4.54,8.23,23.28,23.28,0,0,1,1,4.15,18.79,18.79,0,0,0-1.61-10.29c-.44-.76-.79-1.41-1-1.93a18.6,18.6,0,0,0-1.11-1.57,17.84,17.84,0,0,0-9.47-6.28l-1,.34c.58.31,1.16.64,1.73,1a27.68,27.68,0,0,1,6.94,6.35" transform="translate(-18.87 -2.61)"/>
    <path class="saludvisual-1" d="M55.42,27.25a20,20,0,0,1-3.42-8,21,21,0,0,1-.34-3.66A38.88,38.88,0,0,0,44.2,27.82a19.59,19.59,0,0,1,6.57-1.12,19.92,19.92,0,0,1,4.65.55" transform="translate(-18.87 -2.61)"/>
    <path class="saludvisual-1" d="M81.62,10.62a25.47,25.47,0,0,0,5.17,5,30.63,30.63,0,0,0,18.53,5.72,34.5,34.5,0,0,0,8.06-.93c-.44-.68-.9-1.34-1.38-2A10.26,10.26,0,0,1,96.22,5.85a37.84,37.84,0,0,0-6.37-2.14,29.16,29.16,0,0,0-3.07,1.93,25.62,25.62,0,0,0-5.16,5" transform="translate(-18.87 -2.61)"/>
    <path class="saludvisual-1" d="M105.32,12.55a1.89,1.89,0,0,0,1-.29c-.9-.8-1.85-1.55-2.82-2.26a1.85,1.85,0,0,0-.12.62,1.94,1.94,0,0,0,1.94,1.93" transform="translate(-18.87 -2.61)"/>
    <path class="saludvisual-1" d="M105.32,17.93a7.25,7.25,0,0,0,4.82-1.84c-.53-.61-1.08-1.21-1.64-1.79a4.81,4.81,0,0,1-3.18,1.21A4.85,4.85,0,0,1,101,8.34c-.69-.43-1.4-.83-2.12-1.21a7.31,7.31,0,0,0,6.43,10.8" transform="translate(-18.87 -2.61)"/>
    <path class="saludvisual-1" d="M73.67,32.32a19.65,19.65,0,0,0,5.46.76,19.44,19.44,0,0,0,.55-5.49,23.52,23.52,0,0,0-5.35-13.91,24.1,24.1,0,0,0-9.75-7.59,38.77,38.77,0,0,0-8.43,5.21A23.89,23.89,0,0,0,61.4,23.85a23.56,23.56,0,0,0,12.27,8.47M63,12.56a7.9,7.9,0,1,1-1.32,11.09A7.9,7.9,0,0,1,63,12.56" transform="translate(-18.87 -2.61)"/>
    <path class="saludvisual-1" d="M68.78,19.93a1.48,1.48,0,1,0-2.08-.25,1.48,1.48,0,0,0,2.08.25" transform="translate(-18.87 -2.61)"/>
    <path class="saludvisual-1" d="M57.82,26.67A19.15,19.15,0,0,0,60.05,29a21.85,21.85,0,0,1,3.69,2.54,20,20,0,0,0,6.61,2,23.52,23.52,0,0,1-3.79-2,27.54,27.54,0,0,1-7-6.35A27.51,27.51,0,0,1,55.07,17a24.17,24.17,0,0,1-1-3.92l-.06.06a18.31,18.31,0,0,0,3.79,13.52" transform="translate(-18.87 -2.61)"/>
    <path class="saludvisual-1" d="M71.34,23.18a5.62,5.62,0,1,0-7.89-.94,5.63,5.63,0,0,0,7.89.94m-5.8-7.37a3.76,3.76,0,1,1-.63,5.28,3.77,3.77,0,0,1,.63-5.28" transform="translate(-18.87 -2.61)"/>
    <path class="saludvisual-1" d="M79.08,8.71c.27-.54.57-1.1.89-1.66a38.09,38.09,0,0,1,3-4.37c-.75,0-1.5-.07-2.26-.07a39.12,39.12,0,0,0-8.44.93,20,20,0,0,1,6.85,5.17" transform="translate(-18.87 -2.61)"/>
    <path class="saludvisual-1" d="M113.75,55.21a2.75,2.75,0,1,0,.57,3.84,2.75,2.75,0,0,0-.57-3.84" transform="translate(-18.87 -2.61)"/>
    <path class="saludvisual-1" d="M88.35,60.52a46.21,46.21,0,0,1-3.84-6.9C86.06,63.29,90.59,71,98,76.46l0,0a38,38,0,0,0,4-2.31c-.52-.37-1-.73-1.56-1.12A51.72,51.72,0,0,1,88.35,60.52" transform="translate(-18.87 -2.61)"/>
    <path class="saludvisual-1" d="M80.85,35.24a0,0,0,0,1,0,0,.57.57,0,0,1,0-.14.05.05,0,0,1,0,0,.87.87,0,0,1,.07-.17,0,0,0,0,1,0,0s0-.09.07-.14l0,0a1.3,1.3,0,0,1,.1-.15h0a1.84,1.84,0,0,1,.51-.49l0,0c.25-.16.63-.37,1.26-.69,1-.5,2-1,3.13-1.49a54.62,54.62,0,0,1,10-3.22A27.07,27.07,0,0,1,93,27.21a30.68,30.68,0,0,1-8.33-6.54l-.77-.87a24,24,0,0,1-.19,6.64,29.65,29.65,0,0,1-1.67,5.93c-.23.61-.5,1.19-.75,1.72a5.18,5.18,0,0,1-.36.68v0a1.41,1.41,0,0,1-.26.28h0l-.08.06h0l-.08,0h0l-.09,0h0l-.08,0a0,0,0,0,1,0,0A27.94,27.94,0,0,1,71.6,36a24.9,24.9,0,0,1-4.23-.66,29.55,29.55,0,0,1,2.21,3.26c.31.54.61,1.09.85,1.6.16.33.26.53.31.67v0a1,1,0,0,1,.06.36h0v.11a.25.25,0,0,0,0,.08v0a.29.29,0,0,1,0,.09s0,0,0,0a.19.19,0,0,1,0,.08h0a26.4,26.4,0,0,1-4.65,7,23.73,23.73,0,0,1-3.7,3.3c.3,0,.59,0,.89,0a32.76,32.76,0,0,1,11.09,2.74,41.58,41.58,0,0,1,6.92,3.85A45.92,45.92,0,0,1,80,51.42a51.57,51.57,0,0,1,.88-16.18" transform="translate(-18.87 -2.61)"/>
    <path class="saludvisual-1" d="M103.74,51.21a10.44,10.44,0,0,0,2.17,14.58,10.26,10.26,0,0,0,3.83,1.77,39.12,39.12,0,0,0,2.56-3.18A6.91,6.91,0,0,1,108,63a7,7,0,1,1,8.31-11.21,6.75,6.75,0,0,1,1.55,1.61,39.09,39.09,0,0,0,1-3.93c-.18-.15-.35-.31-.54-.45a10.43,10.43,0,0,0-14.58,2.17" transform="translate(-18.87 -2.61)"/>
    <path class="saludvisual-1" d="M117.67,29.31c-.21-.62-.42-1.22-.66-1.82-.75.37-1.51.71-2.28,1q1.48.34,2.94.81" transform="translate(-18.87 -2.61)"/>
    <path class="saludvisual-1" d="M85,37.29a36.62,36.62,0,0,0,1.69,10.1c2.73,8.75,8.23,16.25,16.37,22.28.87.65,1.75,1.25,2.64,1.83l.72-.62a14.64,14.64,0,1,1,13.12-26.1c0-.25,0-.51.06-.77a43.11,43.11,0,0,0-24.45-8A36.66,36.66,0,0,0,85,37.29" transform="translate(-18.87 -2.61)"/>
    <path class="saludvisual-1" d="M93.23,22.29a31.94,31.94,0,0,1-5-2.28,23.87,23.87,0,0,0,17.14,7.23,23.18,23.18,0,0,0,10.52-2.48c-.28-.58-.57-1.15-.87-1.72a37.15,37.15,0,0,1-9.65,1.24,36.2,36.2,0,0,1-12.09-2" transform="translate(-18.87 -2.61)"/>
    <path class="saludvisual-1" d="M100.46,32.11a45.43,45.43,0,0,1,7.75,1.68A50.44,50.44,0,0,1,119.56,39a38.44,38.44,0,0,0-.61-4.73,35.17,35.17,0,0,0-18.49-2.13" transform="translate(-18.87 -2.61)"/>
    <path class="saludvisual-1" d="M79,70.47a27.7,27.7,0,0,0,2.88-7.19,28.05,28.05,0,0,0-7.29-2.61,33.1,33.1,0,0,0-20.76,2.58,40,40,0,0,0-4,2.11c.22.28.44.57.66.84a11.08,11.08,0,0,1,18,12.43c.91.3,1.84.57,2.78.8a31.12,31.12,0,0,0,7.7-9" transform="translate(-18.87 -2.61)"/>
    <path class="saludvisual-1" d="M64.52,44.94a19.21,19.21,0,0,0,3.84-3.7,19.11,19.11,0,0,0-3.83-3.69A22.79,22.79,0,0,0,50.77,33.3a24.49,24.49,0,0,0-8.47,1.44,39.69,39.69,0,0,0-.61,6.86,38.43,38.43,0,0,0,.48,6.1,24.46,24.46,0,0,0,8.6,1.48,22.74,22.74,0,0,0,13.75-4.24m-21.38-3.7a7.63,7.63,0,1,1,7.63,7.63,7.63,7.63,0,0,1-7.63-7.63" transform="translate(-18.87 -2.61)"/>
    <path class="saludvisual-1" d="M65.72,70.54a7.86,7.86,0,0,0-13.14-1.93c.61.63,1.23,1.25,1.88,1.84A5.2,5.2,0,0,1,56.36,69a5.26,5.26,0,0,1,6.73,7.43c.78.39,1.57.77,2.37,1.11a7.86,7.86,0,0,0,.26-7" transform="translate(-18.87 -2.61)"/>
    <path class="saludvisual-1" d="M65.23,56.94a34.35,34.35,0,0,1,6,0,25.83,25.83,0,0,0-20.07.47,26.32,26.32,0,0,0-4.75,2.79q.72,1.3,1.53,2.55a40.16,40.16,0,0,1,17.29-5.82" transform="translate(-18.87 -2.61)"/>
    <path class="saludvisual-1" d="M56.2,41.24a5.43,5.43,0,1,0-5.43,5.43,5.44,5.44,0,0,0,5.43-5.43m-9.06,0a3.63,3.63,0,1,1,3.63,3.63,3.64,3.64,0,0,1-3.63-3.63" transform="translate(-18.87 -2.61)"/>
    <path class="saludvisual-1" d="M52.43,53.5a28.13,28.13,0,0,1,5-1.21,19.09,19.09,0,0,0,6.07-4.08,23.12,23.12,0,0,1-3.75,1.7,27.71,27.71,0,0,1-17.1.25c.13.55.26,1.09.4,1.62a17.13,17.13,0,0,0,7.73,1.8c.56,0,1.12,0,1.66-.08" transform="translate(-18.87 -2.61)"/>
    <path class="saludvisual-1" d="M43.91,54.56c.32.93.69,1.84,1.08,2.73a28.36,28.36,0,0,1,2.79-1.74,19,19,0,0,1-3.87-1" transform="translate(-18.87 -2.61)"/>
    <path class="saludvisual-1" d="M60.42,72.92a2.07,2.07,0,0,0-2.75-1,2,2,0,0,0-.77.61,39.67,39.67,0,0,0,3.41,2.35,2.06,2.06,0,0,0,.11-1.92" transform="translate(-18.87 -2.61)"/>
    <path class="saludvisual-1" d="M52.2,41.24a1.43,1.43,0,1,0-1.43,1.44,1.43,1.43,0,0,0,1.43-1.44" transform="translate(-18.87 -2.61)"/>
    <path class="saludvisual-1" d="M59.73,32.57a23.62,23.62,0,0,1,3.76,1.7c-.24-.23-.48-.43-.72-.64A20.22,20.22,0,0,1,58.5,30.7a17.47,17.47,0,0,0-15.22-.11c-.17.55-.32,1.11-.46,1.67a27.48,27.48,0,0,1,8-1.16,27.07,27.07,0,0,1,9,1.47" transform="translate(-18.87 -2.61)"/>
    <path class="saludvisual-1" d="M75.59,79.91l-.34.29c.59.08,1.19.15,1.79.21a29.44,29.44,0,0,0,2.5-5,35.67,35.67,0,0,1-4,4.49" transform="translate(-18.87 -2.61)"/>
    <path class="saludvisual-1" d="M84.84,67.67a40.78,40.78,0,0,1-1.59,6.87,35.35,35.35,0,0,1-2.64,6h.06a38.77,38.77,0,0,0,12.94-2.21,37,37,0,0,1-8.77-10.7" transform="translate(-18.87 -2.61)"/>
    <path class="saludvisual-1" d="M80.07,14.36a16.41,16.41,0,0,0-1-1.93c.26.52.61,1.17,1,1.93" transform="translate(-18.87 -2.61)"/>
    <path class="saludvisual-1" d="M60.05,29a17.6,17.6,0,0,0,3.69,2.55A21.34,21.34,0,0,0,60.05,29" transform="translate(-18.87 -2.61)"/>
    <path class="saludvisual-1" d="M62.77,33.63a18.84,18.84,0,0,0-4.28-2.93,20.54,20.54,0,0,0,4.28,2.93" transform="translate(-18.87 -2.61)"/>
    <path class="saludvisual-1" d="M52.43,53.5a16.88,16.88,0,0,0,5-1.21,28.13,28.13,0,0,0-5,1.21" transform="translate(-18.87 -2.61)"/>
  </g>
</svg>
